<?xml version="1.0" encoding="utf-8" standalone="no"?>
<!DOCTYPE svg PUBLIC "-//W3C//DTD SVG 1.1//EN"
  "http://www.w3.org/Graphics/SVG/1.1/DTD/svg11.dtd">
<!-- Created with matplotlib (http://matplotlib.org/) -->
<svg height="576pt" version="1.1" viewBox="0 0 1728 576" width="1728pt" xmlns="http://www.w3.org/2000/svg" xmlns:xlink="http://www.w3.org/1999/xlink">
 <defs>
  <style type="text/css">
*{stroke-linecap:butt;stroke-linejoin:round;}
  </style>
 </defs>
 <g id="figure_1">
  <g id="patch_1">
   <path d="M 0 576 
L 1728 576 
L 1728 0 
L 0 0 
z
" style="fill:#ffffff;"/>
  </g>
  <g id="axes_1">
   <g id="patch_2">
    <path d="M 216 512.64 
L 824.727273 512.64 
L 824.727273 69.12 
L 216 69.12 
z
" style="fill:#808080;"/>
   </g>
   <g id="matplotlib.axis_1">
    <g id="xtick_1">
     <g id="line2d_1">
      <defs>
       <path d="M 0 0 
L 0 3.5 
" id="m9c1a6a0e1c" style="stroke:#000000;stroke-width:0.8;"/>
      </defs>
      <g>
       <use style="stroke:#000000;stroke-width:0.8;" x="225.818182" xlink:href="#m9c1a6a0e1c" y="512.64"/>
      </g>
     </g>
     <g id="text_1">
      <!-- 0 -->
      <defs>
       <path d="M 31.78125 66.40625 
Q 24.171875 66.40625 20.328125 58.90625 
Q 16.5 51.421875 16.5 36.375 
Q 16.5 21.390625 20.328125 13.890625 
Q 24.171875 6.390625 31.78125 6.390625 
Q 39.453125 6.390625 43.28125 13.890625 
Q 47.125 21.390625 47.125 36.375 
Q 47.125 51.421875 43.28125 58.90625 
Q 39.453125 66.40625 31.78125 66.40625 
z
M 31.78125 74.21875 
Q 44.046875 74.21875 50.515625 64.515625 
Q 56.984375 54.828125 56.984375 36.375 
Q 56.984375 17.96875 50.515625 8.265625 
Q 44.046875 -1.421875 31.78125 -1.421875 
Q 19.53125 -1.421875 13.0625 8.265625 
Q 6.59375 17.96875 6.59375 36.375 
Q 6.59375 54.828125 13.0625 64.515625 
Q 19.53125 74.21875 31.78125 74.21875 
z
" id="DejaVuSans-30"/>
      </defs>
      <g transform="translate(222.636932 527.238438)scale(0.1 -0.1)">
       <use xlink:href="#DejaVuSans-30"/>
      </g>
     </g>
    </g>
    <g id="xtick_2">
     <g id="line2d_2">
      <g>
       <use style="stroke:#000000;stroke-width:0.8;" x="324" xlink:href="#m9c1a6a0e1c" y="512.64"/>
      </g>
     </g>
     <g id="text_2">
      <!-- 100 -->
      <defs>
       <path d="M 12.40625 8.296875 
L 28.515625 8.296875 
L 28.515625 63.921875 
L 10.984375 60.40625 
L 10.984375 69.390625 
L 28.421875 72.90625 
L 38.28125 72.90625 
L 38.28125 8.296875 
L 54.390625 8.296875 
L 54.390625 0 
L 12.40625 0 
z
" id="DejaVuSans-31"/>
      </defs>
      <g transform="translate(314.45625 527.238438)scale(0.1 -0.1)">
       <use xlink:href="#DejaVuSans-31"/>
       <use x="63.623047" xlink:href="#DejaVuSans-30"/>
       <use x="127.246094" xlink:href="#DejaVuSans-30"/>
      </g>
     </g>
    </g>
    <g id="xtick_3">
     <g id="line2d_3">
      <g>
       <use style="stroke:#000000;stroke-width:0.8;" x="422.181818" xlink:href="#m9c1a6a0e1c" y="512.64"/>
      </g>
     </g>
     <g id="text_3">
      <!-- 200 -->
      <defs>
       <path d="M 19.1875 8.296875 
L 53.609375 8.296875 
L 53.609375 0 
L 7.328125 0 
L 7.328125 8.296875 
Q 12.9375 14.109375 22.625 23.890625 
Q 32.328125 33.6875 34.8125 36.53125 
Q 39.546875 41.84375 41.421875 45.53125 
Q 43.3125 49.21875 43.3125 52.78125 
Q 43.3125 58.59375 39.234375 62.25 
Q 35.15625 65.921875 28.609375 65.921875 
Q 23.96875 65.921875 18.8125 64.3125 
Q 13.671875 62.703125 7.8125 59.421875 
L 7.8125 69.390625 
Q 13.765625 71.78125 18.9375 73 
Q 24.125 74.21875 28.421875 74.21875 
Q 39.75 74.21875 46.484375 68.546875 
Q 53.21875 62.890625 53.21875 53.421875 
Q 53.21875 48.921875 51.53125 44.890625 
Q 49.859375 40.875 45.40625 35.40625 
Q 44.1875 33.984375 37.640625 27.21875 
Q 31.109375 20.453125 19.1875 8.296875 
z
" id="DejaVuSans-32"/>
      </defs>
      <g transform="translate(412.638068 527.238438)scale(0.1 -0.1)">
       <use xlink:href="#DejaVuSans-32"/>
       <use x="63.623047" xlink:href="#DejaVuSans-30"/>
       <use x="127.246094" xlink:href="#DejaVuSans-30"/>
      </g>
     </g>
    </g>
    <g id="xtick_4">
     <g id="line2d_4">
      <g>
       <use style="stroke:#000000;stroke-width:0.8;" x="520.363636" xlink:href="#m9c1a6a0e1c" y="512.64"/>
      </g>
     </g>
     <g id="text_4">
      <!-- 300 -->
      <defs>
       <path d="M 40.578125 39.3125 
Q 47.65625 37.796875 51.625 33 
Q 55.609375 28.21875 55.609375 21.1875 
Q 55.609375 10.40625 48.1875 4.484375 
Q 40.765625 -1.421875 27.09375 -1.421875 
Q 22.515625 -1.421875 17.65625 -0.515625 
Q 12.796875 0.390625 7.625 2.203125 
L 7.625 11.71875 
Q 11.71875 9.328125 16.59375 8.109375 
Q 21.484375 6.890625 26.8125 6.890625 
Q 36.078125 6.890625 40.9375 10.546875 
Q 45.796875 14.203125 45.796875 21.1875 
Q 45.796875 27.640625 41.28125 31.265625 
Q 36.765625 34.90625 28.71875 34.90625 
L 20.21875 34.90625 
L 20.21875 43.015625 
L 29.109375 43.015625 
Q 36.375 43.015625 40.234375 45.921875 
Q 44.09375 48.828125 44.09375 54.296875 
Q 44.09375 59.90625 40.109375 62.90625 
Q 36.140625 65.921875 28.71875 65.921875 
Q 24.65625 65.921875 20.015625 65.03125 
Q 15.375 64.15625 9.8125 62.3125 
L 9.8125 71.09375 
Q 15.4375 72.65625 20.34375 73.4375 
Q 25.25 74.21875 29.59375 74.21875 
Q 40.828125 74.21875 47.359375 69.109375 
Q 53.90625 64.015625 53.90625 55.328125 
Q 53.90625 49.265625 50.4375 45.09375 
Q 46.96875 40.921875 40.578125 39.3125 
z
" id="DejaVuSans-33"/>
      </defs>
      <g transform="translate(510.819886 527.238438)scale(0.1 -0.1)">
       <use xlink:href="#DejaVuSans-33"/>
       <use x="63.623047" xlink:href="#DejaVuSans-30"/>
       <use x="127.246094" xlink:href="#DejaVuSans-30"/>
      </g>
     </g>
    </g>
    <g id="xtick_5">
     <g id="line2d_5">
      <g>
       <use style="stroke:#000000;stroke-width:0.8;" x="618.545455" xlink:href="#m9c1a6a0e1c" y="512.64"/>
      </g>
     </g>
     <g id="text_5">
      <!-- 400 -->
      <defs>
       <path d="M 37.796875 64.3125 
L 12.890625 25.390625 
L 37.796875 25.390625 
z
M 35.203125 72.90625 
L 47.609375 72.90625 
L 47.609375 25.390625 
L 58.015625 25.390625 
L 58.015625 17.1875 
L 47.609375 17.1875 
L 47.609375 0 
L 37.796875 0 
L 37.796875 17.1875 
L 4.890625 17.1875 
L 4.890625 26.703125 
z
" id="DejaVuSans-34"/>
      </defs>
      <g transform="translate(609.001705 527.238438)scale(0.1 -0.1)">
       <use xlink:href="#DejaVuSans-34"/>
       <use x="63.623047" xlink:href="#DejaVuSans-30"/>
       <use x="127.246094" xlink:href="#DejaVuSans-30"/>
      </g>
     </g>
    </g>
    <g id="xtick_6">
     <g id="line2d_6">
      <g>
       <use style="stroke:#000000;stroke-width:0.8;" x="716.727273" xlink:href="#m9c1a6a0e1c" y="512.64"/>
      </g>
     </g>
     <g id="text_6">
      <!-- 500 -->
      <defs>
       <path d="M 10.796875 72.90625 
L 49.515625 72.90625 
L 49.515625 64.59375 
L 19.828125 64.59375 
L 19.828125 46.734375 
Q 21.96875 47.46875 24.109375 47.828125 
Q 26.265625 48.1875 28.421875 48.1875 
Q 40.625 48.1875 47.75 41.5 
Q 54.890625 34.8125 54.890625 23.390625 
Q 54.890625 11.625 47.5625 5.09375 
Q 40.234375 -1.421875 26.90625 -1.421875 
Q 22.3125 -1.421875 17.546875 -0.640625 
Q 12.796875 0.140625 7.71875 1.703125 
L 7.71875 11.625 
Q 12.109375 9.234375 16.796875 8.0625 
Q 21.484375 6.890625 26.703125 6.890625 
Q 35.15625 6.890625 40.078125 11.328125 
Q 45.015625 15.765625 45.015625 23.390625 
Q 45.015625 31 40.078125 35.4375 
Q 35.15625 39.890625 26.703125 39.890625 
Q 22.75 39.890625 18.8125 39.015625 
Q 14.890625 38.140625 10.796875 36.28125 
z
" id="DejaVuSans-35"/>
      </defs>
      <g transform="translate(707.183523 527.238438)scale(0.1 -0.1)">
       <use xlink:href="#DejaVuSans-35"/>
       <use x="63.623047" xlink:href="#DejaVuSans-30"/>
       <use x="127.246094" xlink:href="#DejaVuSans-30"/>
      </g>
     </g>
    </g>
    <g id="xtick_7">
     <g id="line2d_7">
      <g>
       <use style="stroke:#000000;stroke-width:0.8;" x="814.909091" xlink:href="#m9c1a6a0e1c" y="512.64"/>
      </g>
     </g>
     <g id="text_7">
      <!-- 600 -->
      <defs>
       <path d="M 33.015625 40.375 
Q 26.375 40.375 22.484375 35.828125 
Q 18.609375 31.296875 18.609375 23.390625 
Q 18.609375 15.53125 22.484375 10.953125 
Q 26.375 6.390625 33.015625 6.390625 
Q 39.65625 6.390625 43.53125 10.953125 
Q 47.40625 15.53125 47.40625 23.390625 
Q 47.40625 31.296875 43.53125 35.828125 
Q 39.65625 40.375 33.015625 40.375 
z
M 52.59375 71.296875 
L 52.59375 62.3125 
Q 48.875 64.0625 45.09375 64.984375 
Q 41.3125 65.921875 37.59375 65.921875 
Q 27.828125 65.921875 22.671875 59.328125 
Q 17.53125 52.734375 16.796875 39.40625 
Q 19.671875 43.65625 24.015625 45.921875 
Q 28.375 48.1875 33.59375 48.1875 
Q 44.578125 48.1875 50.953125 41.515625 
Q 57.328125 34.859375 57.328125 23.390625 
Q 57.328125 12.15625 50.6875 5.359375 
Q 44.046875 -1.421875 33.015625 -1.421875 
Q 20.359375 -1.421875 13.671875 8.265625 
Q 6.984375 17.96875 6.984375 36.375 
Q 6.984375 53.65625 15.1875 63.9375 
Q 23.390625 74.21875 37.203125 74.21875 
Q 40.921875 74.21875 44.703125 73.484375 
Q 48.484375 72.75 52.59375 71.296875 
z
" id="DejaVuSans-36"/>
      </defs>
      <g transform="translate(805.365341 527.238438)scale(0.1 -0.1)">
       <use xlink:href="#DejaVuSans-36"/>
       <use x="63.623047" xlink:href="#DejaVuSans-30"/>
       <use x="127.246094" xlink:href="#DejaVuSans-30"/>
      </g>
     </g>
    </g>
   </g>
   <g id="matplotlib.axis_2">
    <g id="ytick_1">
     <g id="line2d_8">
      <defs>
       <path d="M 0 0 
L -3.5 0 
" id="m99f34257fa" style="stroke:#000000;stroke-width:0.8;"/>
      </defs>
      <g>
       <use style="stroke:#000000;stroke-width:0.8;" x="216" xlink:href="#m99f34257fa" y="502.08"/>
      </g>
     </g>
     <g id="text_8">
      <!-- 0 -->
      <g transform="translate(202.6375 505.879219)scale(0.1 -0.1)">
       <use xlink:href="#DejaVuSans-30"/>
      </g>
     </g>
    </g>
    <g id="ytick_2">
     <g id="line2d_9">
      <g>
       <use style="stroke:#000000;stroke-width:0.8;" x="216" xlink:href="#m99f34257fa" y="449.28"/>
      </g>
     </g>
     <g id="text_9">
      <!-- 50 -->
      <g transform="translate(196.275 453.079219)scale(0.1 -0.1)">
       <use xlink:href="#DejaVuSans-35"/>
       <use x="63.623047" xlink:href="#DejaVuSans-30"/>
      </g>
     </g>
    </g>
    <g id="ytick_3">
     <g id="line2d_10">
      <g>
       <use style="stroke:#000000;stroke-width:0.8;" x="216" xlink:href="#m99f34257fa" y="396.48"/>
      </g>
     </g>
     <g id="text_10">
      <!-- 100 -->
      <g transform="translate(189.9125 400.279219)scale(0.1 -0.1)">
       <use xlink:href="#DejaVuSans-31"/>
       <use x="63.623047" xlink:href="#DejaVuSans-30"/>
       <use x="127.246094" xlink:href="#DejaVuSans-30"/>
      </g>
     </g>
    </g>
    <g id="ytick_4">
     <g id="line2d_11">
      <g>
       <use style="stroke:#000000;stroke-width:0.8;" x="216" xlink:href="#m99f34257fa" y="343.68"/>
      </g>
     </g>
     <g id="text_11">
      <!-- 150 -->
      <g transform="translate(189.9125 347.479219)scale(0.1 -0.1)">
       <use xlink:href="#DejaVuSans-31"/>
       <use x="63.623047" xlink:href="#DejaVuSans-35"/>
       <use x="127.246094" xlink:href="#DejaVuSans-30"/>
      </g>
     </g>
    </g>
    <g id="ytick_5">
     <g id="line2d_12">
      <g>
       <use style="stroke:#000000;stroke-width:0.8;" x="216" xlink:href="#m99f34257fa" y="290.88"/>
      </g>
     </g>
     <g id="text_12">
      <!-- 200 -->
      <g transform="translate(189.9125 294.679219)scale(0.1 -0.1)">
       <use xlink:href="#DejaVuSans-32"/>
       <use x="63.623047" xlink:href="#DejaVuSans-30"/>
       <use x="127.246094" xlink:href="#DejaVuSans-30"/>
      </g>
     </g>
    </g>
    <g id="ytick_6">
     <g id="line2d_13">
      <g>
       <use style="stroke:#000000;stroke-width:0.8;" x="216" xlink:href="#m99f34257fa" y="238.08"/>
      </g>
     </g>
     <g id="text_13">
      <!-- 250 -->
      <g transform="translate(189.9125 241.879219)scale(0.1 -0.1)">
       <use xlink:href="#DejaVuSans-32"/>
       <use x="63.623047" xlink:href="#DejaVuSans-35"/>
       <use x="127.246094" xlink:href="#DejaVuSans-30"/>
      </g>
     </g>
    </g>
    <g id="ytick_7">
     <g id="line2d_14">
      <g>
       <use style="stroke:#000000;stroke-width:0.8;" x="216" xlink:href="#m99f34257fa" y="185.28"/>
      </g>
     </g>
     <g id="text_14">
      <!-- 300 -->
      <g transform="translate(189.9125 189.079219)scale(0.1 -0.1)">
       <use xlink:href="#DejaVuSans-33"/>
       <use x="63.623047" xlink:href="#DejaVuSans-30"/>
       <use x="127.246094" xlink:href="#DejaVuSans-30"/>
      </g>
     </g>
    </g>
    <g id="ytick_8">
     <g id="line2d_15">
      <g>
       <use style="stroke:#000000;stroke-width:0.8;" x="216" xlink:href="#m99f34257fa" y="132.48"/>
      </g>
     </g>
     <g id="text_15">
      <!-- 350 -->
      <g transform="translate(189.9125 136.279219)scale(0.1 -0.1)">
       <use xlink:href="#DejaVuSans-33"/>
       <use x="63.623047" xlink:href="#DejaVuSans-35"/>
       <use x="127.246094" xlink:href="#DejaVuSans-30"/>
      </g>
     </g>
    </g>
    <g id="ytick_9">
     <g id="line2d_16">
      <g>
       <use style="stroke:#000000;stroke-width:0.8;" x="216" xlink:href="#m99f34257fa" y="79.68"/>
      </g>
     </g>
     <g id="text_16">
      <!-- 400 -->
      <g transform="translate(189.9125 83.479219)scale(0.1 -0.1)">
       <use xlink:href="#DejaVuSans-34"/>
       <use x="63.623047" xlink:href="#DejaVuSans-30"/>
       <use x="127.246094" xlink:href="#DejaVuSans-30"/>
      </g>
     </g>
    </g>
   </g>
   <g id="line2d_17">
    <defs>
     <path d="M 0 3 
C 0.795609 3 1.55874 2.683901 2.12132 2.12132 
C 2.683901 1.55874 3 0.795609 3 0 
C 3 -0.795609 2.683901 -1.55874 2.12132 -2.12132 
C 1.55874 -2.683901 0.795609 -3 0 -3 
C -0.795609 -3 -1.55874 -2.683901 -2.12132 -2.12132 
C -2.683901 -1.55874 -3 -0.795609 -3 0 
C -3 0.795609 -2.683901 1.55874 -2.12132 2.12132 
C -1.55874 2.683901 -0.795609 3 0 3 
z
" id="ma2e50d52ef" style="stroke:#000000;"/>
    </defs>
    <g clip-path="url(#pde296802ec)">
     <use style="stroke:#000000;" x="348.545455" xlink:href="#ma2e50d52ef" y="158.88"/>
    </g>
   </g>
   <g id="line2d_18">
    <path clip-path="url(#pde296802ec)" d="M 594 158.88 
L 593.505821 142.136085 
L 592.025272 125.459592 
L 589.564317 108.917671 
L 586.132863 92.576931 
L 581.744729 76.50317 
L 576.417584 60.761112 
L 570.172878 45.414143 
L 563.035756 30.524062 
L 555.034958 16.150824 
L 546.2027 2.352307 
L 543.75161 -1 
M 153.33653 -1 
L 146.370294 9.176196 
L 137.949526 23.269169 
L 130.376754 37.908198 
L 123.68247 53.034339 
L 117.893629 68.586682 
L 113.033543 84.502605 
L 109.12178 100.718019 
L 106.174091 117.167631 
L 104.202346 133.785205 
L 103.214485 150.503826 
L 103.214485 167.256174 
L 104.202346 183.974795 
L 106.174091 200.592369 
L 109.12178 217.041981 
L 113.033543 233.257395 
L 117.893629 249.173318 
L 123.68247 264.725661 
L 130.376754 279.851802 
L 137.949526 294.490831 
L 146.370294 308.583804 
L 155.605149 322.073972 
L 165.616908 334.907016 
L 176.365255 347.031261 
L 187.806911 358.397888 
L 199.895804 368.961126 
L 212.583257 378.678442 
L 225.818182 387.510707 
L 239.547286 395.422356 
L 253.715287 402.381534 
L 268.265136 408.360216 
L 283.138246 413.33433 
L 298.274727 417.283846 
L 313.613631 420.192861 
L 329.093192 422.049661 
L 344.651082 422.84677 
L 360.224652 422.580978 
L 375.751195 421.253355 
L 391.168189 418.869247 
L 406.413557 415.438254 
L 421.42591 410.974192 
L 436.1448 405.495035 
L 450.510958 399.022847 
L 464.466537 391.583688 
L 477.955342 383.207514 
L 490.92306 373.928051 
L 503.317473 363.782667 
L 515.088674 352.812211 
L 526.189264 341.060859 
L 536.574545 328.575929 
L 546.2027 315.407693 
L 555.034958 301.609176 
L 563.035756 287.235938 
L 570.172878 272.345857 
L 576.417584 256.998888 
L 581.744729 241.25683 
L 586.132863 225.183069 
L 589.564317 208.842329 
L 592.025272 192.300408 
L 593.505821 175.623915 
L 594 158.88 
" style="fill:none;stroke:#ffc0cb;stroke-linecap:square;stroke-width:1.5;"/>
   </g>
   <g id="line2d_19">
    <g clip-path="url(#pde296802ec)">
     <use style="stroke:#000000;" x="692.181818" xlink:href="#ma2e50d52ef" y="158.88"/>
    </g>
   </g>
   <g id="line2d_20">
    <path clip-path="url(#pde296802ec)" d="M 937.636364 158.88 
L 937.142184 142.136085 
L 935.661636 125.459592 
L 933.20068 108.917671 
L 929.769227 92.576931 
L 925.381093 76.50317 
L 920.053947 60.761112 
L 913.809241 45.414143 
L 906.67212 30.524062 
L 898.671322 16.150824 
L 889.839063 2.352307 
L 887.387974 -1 
M 496.972894 -1 
L 490.006657 9.176196 
L 481.585889 23.269169 
L 474.013117 37.908198 
L 467.318833 53.034339 
L 461.529993 68.586682 
L 456.669906 84.502605 
L 452.758143 100.718019 
L 449.810455 117.167631 
L 447.83871 133.785205 
L 446.850849 150.503826 
L 446.850849 167.256174 
L 447.83871 183.974795 
L 449.810455 200.592369 
L 452.758143 217.041981 
L 456.669906 233.257395 
L 461.529993 249.173318 
L 467.318833 264.725661 
L 474.013117 279.851802 
L 481.585889 294.490831 
L 490.006657 308.583804 
L 499.241513 322.073972 
L 509.253271 334.907016 
L 520.001618 347.031261 
L 531.443274 358.397888 
L 543.532168 368.961126 
L 556.219621 378.678442 
L 569.454545 387.510707 
L 583.18365 395.422356 
L 597.351651 402.381534 
L 611.9015 408.360216 
L 626.774609 413.33433 
L 641.911091 417.283846 
L 657.249994 420.192861 
L 672.729556 422.049661 
L 688.287445 422.84677 
L 703.861016 422.580978 
L 719.387558 421.253355 
L 734.804553 418.869247 
L 750.049921 415.438254 
L 765.062274 410.974192 
L 779.781163 405.495035 
L 794.147321 399.022847 
L 808.1029 391.583688 
L 821.591706 383.207514 
L 834.559423 373.928051 
L 846.953836 363.782667 
L 858.725037 352.812211 
L 869.825628 341.060859 
L 880.210909 328.575929 
L 889.839063 315.407693 
L 898.671322 301.609176 
L 906.67212 287.235938 
L 913.809241 272.345857 
L 920.053947 256.998888 
L 925.381093 241.25683 
L 929.769227 225.183069 
L 933.20068 208.842329 
L 935.661636 192.300408 
L 937.142184 175.623915 
L 937.636364 158.88 
" style="fill:none;stroke:#ff0000;stroke-linecap:square;stroke-width:1.5;"/>
   </g>
   <g id="line2d_21">
    <g clip-path="url(#pde296802ec)">
     <use style="stroke:#000000;" x="520.363636" xlink:href="#ma2e50d52ef" y="449.28"/>
    </g>
   </g>
   <g id="line2d_22">
    <path clip-path="url(#pde296802ec)" d="M 765.818182 449.28 
L 765.324002 432.536085 
L 763.843454 415.859592 
L 761.382498 399.317671 
L 757.951045 382.976931 
L 753.562911 366.90317 
L 748.235765 351.161112 
L 741.991059 335.814143 
L 734.853938 320.924062 
L 726.85314 306.550824 
L 718.020881 292.752307 
L 708.392727 279.584071 
L 698.007446 267.099141 
L 686.906856 255.347789 
L 675.135655 244.377333 
L 662.741241 234.231949 
L 649.773524 224.952486 
L 636.284718 216.576312 
L 622.32914 209.137153 
L 607.962982 202.664965 
L 593.244092 197.185808 
L 578.231739 192.721746 
L 562.986371 189.290753 
L 547.569376 186.906645 
L 532.042834 185.579022 
L 516.469263 185.31323 
L 500.911374 186.110339 
L 485.431812 187.967139 
L 470.092909 190.876154 
L 454.956428 194.82567 
L 440.083318 199.799784 
L 425.533469 205.778466 
L 411.365468 212.737644 
L 397.636364 220.649293 
L 384.401439 229.481558 
L 371.713986 239.198874 
L 359.625093 249.762112 
L 348.183437 261.128739 
L 337.43509 273.252984 
L 327.423331 286.086028 
L 318.188475 299.576196 
L 309.767708 313.669169 
L 302.194935 328.308198 
L 295.500651 343.434339 
L 289.711811 358.986682 
L 284.851725 374.902605 
L 280.939961 391.118019 
L 277.992273 407.567631 
L 276.020528 424.185205 
L 275.032667 440.903826 
L 275.032667 457.656174 
L 276.020528 474.374795 
L 277.992273 490.992369 
L 280.939961 507.441981 
L 284.851725 523.657395 
L 289.711811 539.573318 
L 295.500651 555.125661 
L 302.194935 570.251802 
L 305.685779 577 
M 735.158756 577 
L 741.991059 562.745857 
L 748.235765 547.398888 
L 753.562911 531.65683 
L 757.951045 515.583069 
L 761.382498 499.242329 
L 763.843454 482.700408 
L 765.324002 466.023915 
L 765.818182 449.28 
" style="fill:none;stroke:#008000;stroke-linecap:square;stroke-width:1.5;"/>
   </g>
   <g id="line2d_23">
    <path clip-path="url(#pde296802ec)" d="M 540 79.68 
" style="fill:none;stroke:#ffc0cb;stroke-linecap:square;stroke-width:1.5;"/>
    <defs>
     <path d="M -3 3 
L 3 3 
L 3 -3 
L -3 -3 
z
" id="m6564e468e3" style="stroke:#ffc0cb;stroke-linejoin:miter;"/>
    </defs>
    <g clip-path="url(#pde296802ec)">
     <use style="fill:#ffc0cb;stroke:#ffc0cb;stroke-linejoin:miter;" x="540" xlink:href="#m6564e468e3" y="79.68"/>
    </g>
   </g>
   <g id="line2d_24">
    <path clip-path="url(#pde296802ec)" d="M 549.818182 79.68 
" style="fill:none;stroke:#ffc0cb;stroke-linecap:square;stroke-width:1.5;"/>
    <defs>
     <path d="M -4.5 3 
L 0 0 
L -4.5 -3 
" id="m02a8cbb493" style="stroke:#ffc0cb;stroke-linejoin:miter;"/>
    </defs>
    <g clip-path="url(#pde296802ec)">
     <use style="fill:#ffc0cb;stroke:#ffc0cb;stroke-linejoin:miter;" x="549.818182" xlink:href="#m02a8cbb493" y="79.68"/>
    </g>
   </g>
   <g id="line2d_25">
    <path clip-path="url(#pde296802ec)" d="M 559.636364 79.68 
" style="fill:none;stroke:#ffc0cb;stroke-linecap:square;stroke-width:1.5;"/>
    <g clip-path="url(#pde296802ec)">
     <use style="fill:#ffc0cb;stroke:#ffc0cb;stroke-linejoin:miter;" x="559.636364" xlink:href="#m02a8cbb493" y="79.68"/>
    </g>
   </g>
   <g id="line2d_26">
    <path clip-path="url(#pde296802ec)" d="M 569.454545 79.68 
" style="fill:none;stroke:#ffc0cb;stroke-linecap:square;stroke-width:1.5;"/>
    <g clip-path="url(#pde296802ec)">
     <use style="fill:#ffc0cb;stroke:#ffc0cb;stroke-linejoin:miter;" x="569.454545" xlink:href="#m02a8cbb493" y="79.68"/>
    </g>
   </g>
   <g id="line2d_27">
    <path clip-path="url(#pde296802ec)" d="M 579.272727 79.68 
" style="fill:none;stroke:#ffc0cb;stroke-linecap:square;stroke-width:1.5;"/>
    <g clip-path="url(#pde296802ec)">
     <use style="fill:#ffc0cb;stroke:#ffc0cb;stroke-linejoin:miter;" x="579.272727" xlink:href="#m02a8cbb493" y="79.68"/>
    </g>
   </g>
   <g id="line2d_28">
    <path clip-path="url(#pde296802ec)" d="M 589.090909 79.68 
" style="fill:none;stroke:#ff0000;stroke-linecap:square;stroke-width:1.5;"/>
    <defs>
     <path d="M -4.5 3 
L 0 0 
L -4.5 -3 
" id="ma884231057" style="stroke:#ff0000;stroke-linejoin:miter;"/>
    </defs>
    <g clip-path="url(#pde296802ec)">
     <use style="fill:#ff0000;stroke:#ff0000;stroke-linejoin:miter;" x="589.090909" xlink:href="#ma884231057" y="79.68"/>
    </g>
   </g>
   <g id="line2d_29">
    <path clip-path="url(#pde296802ec)" d="M 598.909091 79.68 
" style="fill:none;stroke:#ff0000;stroke-linecap:square;stroke-width:1.5;"/>
    <g clip-path="url(#pde296802ec)">
     <use style="fill:#ff0000;stroke:#ff0000;stroke-linejoin:miter;" x="598.909091" xlink:href="#ma884231057" y="79.68"/>
    </g>
   </g>
   <g id="line2d_30">
    <path clip-path="url(#pde296802ec)" d="M 608.727273 79.68 
" style="fill:none;stroke:#ff0000;stroke-linecap:square;stroke-width:1.5;"/>
    <g clip-path="url(#pde296802ec)">
     <use style="fill:#ff0000;stroke:#ff0000;stroke-linejoin:miter;" x="608.727273" xlink:href="#ma884231057" y="79.68"/>
    </g>
   </g>
   <g id="line2d_31">
    <path clip-path="url(#pde296802ec)" d="M 618.545455 79.68 
" style="fill:none;stroke:#ff0000;stroke-linecap:square;stroke-width:1.5;"/>
    <g clip-path="url(#pde296802ec)">
     <use style="fill:#ff0000;stroke:#ff0000;stroke-linejoin:miter;" x="618.545455" xlink:href="#ma884231057" y="79.68"/>
    </g>
   </g>
   <g id="line2d_32">
    <path clip-path="url(#pde296802ec)" d="M 628.363636 79.68 
" style="fill:none;stroke:#ff0000;stroke-linecap:square;stroke-width:1.5;"/>
    <g clip-path="url(#pde296802ec)">
     <use style="fill:#ff0000;stroke:#ff0000;stroke-linejoin:miter;" x="628.363636" xlink:href="#ma884231057" y="79.68"/>
    </g>
   </g>
   <g id="line2d_33">
    <path clip-path="url(#pde296802ec)" d="M 638.181818 79.68 
" style="fill:none;stroke:#ff0000;stroke-linecap:square;stroke-width:1.5;"/>
    <g clip-path="url(#pde296802ec)">
     <use style="fill:#ff0000;stroke:#ff0000;stroke-linejoin:miter;" x="638.181818" xlink:href="#ma884231057" y="79.68"/>
    </g>
   </g>
   <g id="line2d_34">
    <path clip-path="url(#pde296802ec)" d="M 648 79.68 
" style="fill:none;stroke:#ff0000;stroke-linecap:square;stroke-width:1.5;"/>
    <g clip-path="url(#pde296802ec)">
     <use style="fill:#ff0000;stroke:#ff0000;stroke-linejoin:miter;" x="648" xlink:href="#ma884231057" y="79.68"/>
    </g>
   </g>
   <g id="line2d_35">
    <path clip-path="url(#pde296802ec)" d="M 657.818182 79.68 
" style="fill:none;stroke:#ff0000;stroke-linecap:square;stroke-width:1.5;"/>
    <g clip-path="url(#pde296802ec)">
     <use style="fill:#ff0000;stroke:#ff0000;stroke-linejoin:miter;" x="657.818182" xlink:href="#ma884231057" y="79.68"/>
    </g>
   </g>
   <g id="line2d_36">
    <path clip-path="url(#pde296802ec)" d="M 667.636364 79.68 
" style="fill:none;stroke:#ff0000;stroke-linecap:square;stroke-width:1.5;"/>
    <g clip-path="url(#pde296802ec)">
     <use style="fill:#ff0000;stroke:#ff0000;stroke-linejoin:miter;" x="667.636364" xlink:href="#ma884231057" y="79.68"/>
    </g>
   </g>
   <g id="line2d_37">
    <path clip-path="url(#pde296802ec)" d="M 677.454545 79.68 
" style="fill:none;stroke:#ff0000;stroke-linecap:square;stroke-width:1.5;"/>
    <g clip-path="url(#pde296802ec)">
     <use style="fill:#ff0000;stroke:#ff0000;stroke-linejoin:miter;" x="677.454545" xlink:href="#ma884231057" y="79.68"/>
    </g>
   </g>
   <g id="line2d_38">
    <path clip-path="url(#pde296802ec)" d="M 687.272727 79.68 
" style="fill:none;stroke:#ff0000;stroke-linecap:square;stroke-width:1.5;"/>
    <g clip-path="url(#pde296802ec)">
     <use style="fill:#ff0000;stroke:#ff0000;stroke-linejoin:miter;" x="687.272727" xlink:href="#ma884231057" y="79.68"/>
    </g>
   </g>
   <g id="line2d_39">
    <path clip-path="url(#pde296802ec)" d="M 697.090909 79.68 
" style="fill:none;stroke:#ff0000;stroke-linecap:square;stroke-width:1.5;"/>
    <g clip-path="url(#pde296802ec)">
     <use style="fill:#ff0000;stroke:#ff0000;stroke-linejoin:miter;" x="697.090909" xlink:href="#ma884231057" y="79.68"/>
    </g>
   </g>
   <g id="line2d_40">
    <path clip-path="url(#pde296802ec)" d="M 706.909091 79.68 
" style="fill:none;stroke:#ff0000;stroke-linecap:square;stroke-width:1.5;"/>
    <g clip-path="url(#pde296802ec)">
     <use style="fill:#ff0000;stroke:#ff0000;stroke-linejoin:miter;" x="706.909091" xlink:href="#ma884231057" y="79.68"/>
    </g>
   </g>
   <g id="line2d_41">
    <path clip-path="url(#pde296802ec)" d="M 716.727273 79.68 
" style="fill:none;stroke:#ff0000;stroke-linecap:square;stroke-width:1.5;"/>
    <g clip-path="url(#pde296802ec)">
     <use style="fill:#ff0000;stroke:#ff0000;stroke-linejoin:miter;" x="716.727273" xlink:href="#ma884231057" y="79.68"/>
    </g>
   </g>
   <g id="line2d_42">
    <path clip-path="url(#pde296802ec)" d="M 726.545455 79.68 
" style="fill:none;stroke:#ff0000;stroke-linecap:square;stroke-width:1.5;"/>
    <g clip-path="url(#pde296802ec)">
     <use style="fill:#ff0000;stroke:#ff0000;stroke-linejoin:miter;" x="726.545455" xlink:href="#ma884231057" y="79.68"/>
    </g>
   </g>
   <g id="line2d_43">
    <path clip-path="url(#pde296802ec)" d="M 736.363636 79.68 
" style="fill:none;stroke:#ff0000;stroke-linecap:square;stroke-width:1.5;"/>
    <g clip-path="url(#pde296802ec)">
     <use style="fill:#ff0000;stroke:#ff0000;stroke-linejoin:miter;" x="736.363636" xlink:href="#ma884231057" y="79.68"/>
    </g>
   </g>
   <g id="line2d_44">
    <path clip-path="url(#pde296802ec)" d="M 746.181818 79.68 
" style="fill:none;stroke:#ff0000;stroke-linecap:square;stroke-width:1.5;"/>
    <g clip-path="url(#pde296802ec)">
     <use style="fill:#ff0000;stroke:#ff0000;stroke-linejoin:miter;" x="746.181818" xlink:href="#ma884231057" y="79.68"/>
    </g>
   </g>
   <g id="line2d_45">
    <path clip-path="url(#pde296802ec)" d="M 756 79.68 
" style="fill:none;stroke:#ff0000;stroke-linecap:square;stroke-width:1.5;"/>
    <g clip-path="url(#pde296802ec)">
     <use style="fill:#ff0000;stroke:#ff0000;stroke-linejoin:miter;" x="756" xlink:href="#ma884231057" y="79.68"/>
    </g>
   </g>
   <g id="line2d_46">
    <path clip-path="url(#pde296802ec)" d="M 765.818182 79.68 
" style="fill:none;stroke:#ff0000;stroke-linecap:square;stroke-width:1.5;"/>
    <g clip-path="url(#pde296802ec)">
     <use style="fill:#ff0000;stroke:#ff0000;stroke-linejoin:miter;" x="765.818182" xlink:href="#ma884231057" y="79.68"/>
    </g>
   </g>
   <g id="line2d_47">
    <path clip-path="url(#pde296802ec)" d="M 775.636364 79.68 
" style="fill:none;stroke:#ff0000;stroke-linecap:square;stroke-width:1.5;"/>
    <g clip-path="url(#pde296802ec)">
     <use style="fill:#ff0000;stroke:#ff0000;stroke-linejoin:miter;" x="775.636364" xlink:href="#ma884231057" y="79.68"/>
    </g>
   </g>
   <g id="line2d_48">
    <path clip-path="url(#pde296802ec)" d="M 785.454545 79.68 
" style="fill:none;stroke:#ff0000;stroke-linecap:square;stroke-width:1.5;"/>
    <g clip-path="url(#pde296802ec)">
     <use style="fill:#ff0000;stroke:#ff0000;stroke-linejoin:miter;" x="785.454545" xlink:href="#ma884231057" y="79.68"/>
    </g>
   </g>
   <g id="line2d_49">
    <path clip-path="url(#pde296802ec)" d="M 795.272727 79.68 
" style="fill:none;stroke:#ff0000;stroke-linecap:square;stroke-width:1.5;"/>
    <g clip-path="url(#pde296802ec)">
     <use style="fill:#ff0000;stroke:#ff0000;stroke-linejoin:miter;" x="795.272727" xlink:href="#ma884231057" y="79.68"/>
    </g>
   </g>
   <g id="line2d_50">
    <path clip-path="url(#pde296802ec)" d="M 805.090909 79.68 
" style="fill:none;stroke:#ff0000;stroke-linecap:square;stroke-width:1.5;"/>
    <g clip-path="url(#pde296802ec)">
     <use style="fill:#ff0000;stroke:#ff0000;stroke-linejoin:miter;" x="805.090909" xlink:href="#ma884231057" y="79.68"/>
    </g>
   </g>
   <g id="line2d_51">
    <defs>
     <path d="M 0 3 
C 0.795609 3 1.55874 2.683901 2.12132 2.12132 
C 2.683901 1.55874 3 0.795609 3 0 
C 3 -0.795609 2.683901 -1.55874 2.12132 -2.12132 
C 1.55874 -2.683901 0.795609 -3 0 -3 
C -0.795609 -3 -1.55874 -2.683901 -2.12132 -2.12132 
C -2.683901 -1.55874 -3 -0.795609 -3 0 
C -3 0.795609 -2.683901 1.55874 -2.12132 2.12132 
C -1.55874 2.683901 -0.795609 3 0 3 
z
" id="m7d92b632dd" style="stroke:#ff0000;"/>
    </defs>
    <g clip-path="url(#pde296802ec)">
     <use style="fill:#ff0000;stroke:#ff0000;" x="814.909091" xlink:href="#m7d92b632dd" y="79.68"/>
    </g>
   </g>
   <g id="patch_3">
    <path d="M 216 512.64 
L 216 69.12 
" style="fill:none;stroke:#000000;stroke-linecap:square;stroke-linejoin:miter;stroke-width:0.8;"/>
   </g>
   <g id="patch_4">
    <path d="M 824.727273 512.64 
L 824.727273 69.12 
" style="fill:none;stroke:#000000;stroke-linecap:square;stroke-linejoin:miter;stroke-width:0.8;"/>
   </g>
   <g id="patch_5">
    <path d="M 216 512.64 
L 824.727273 512.64 
" style="fill:none;stroke:#000000;stroke-linecap:square;stroke-linejoin:miter;stroke-width:0.8;"/>
   </g>
   <g id="patch_6">
    <path d="M 216 69.12 
L 824.727273 69.12 
" style="fill:none;stroke:#000000;stroke-linecap:square;stroke-linejoin:miter;stroke-width:0.8;"/>
   </g>
   <g id="legend_1">
    <g id="patch_7">
     <path d="M 223 121.154375 
L 274.232813 121.154375 
Q 276.232813 121.154375 276.232813 119.154375 
L 276.232813 76.12 
Q 276.232813 74.12 274.232813 74.12 
L 223 74.12 
Q 221 74.12 221 76.12 
L 221 119.154375 
Q 221 121.154375 223 121.154375 
z
" style="fill:#ffffff;opacity:0.8;stroke:#cccccc;stroke-linejoin:miter;"/>
    </g>
    <g id="line2d_52">
     <path d="M 225 82.218438 
L 245 82.218438 
" style="fill:none;stroke:#ffc0cb;stroke-linecap:square;stroke-width:1.5;"/>
    </g>
    <g id="line2d_53"/>
    <g id="text_17">
     <!-- AP1 -->
     <defs>
      <path d="M 34.1875 63.1875 
L 20.796875 26.90625 
L 47.609375 26.90625 
z
M 28.609375 72.90625 
L 39.796875 72.90625 
L 67.578125 0 
L 57.328125 0 
L 50.6875 18.703125 
L 17.828125 18.703125 
L 11.1875 0 
L 0.78125 0 
z
" id="DejaVuSans-41"/>
      <path d="M 19.671875 64.796875 
L 19.671875 37.40625 
L 32.078125 37.40625 
Q 38.96875 37.40625 42.71875 40.96875 
Q 46.484375 44.53125 46.484375 51.125 
Q 46.484375 57.671875 42.71875 61.234375 
Q 38.96875 64.796875 32.078125 64.796875 
z
M 9.8125 72.90625 
L 32.078125 72.90625 
Q 44.34375 72.90625 50.609375 67.359375 
Q 56.890625 61.8125 56.890625 51.125 
Q 56.890625 40.328125 50.609375 34.8125 
Q 44.34375 29.296875 32.078125 29.296875 
L 19.671875 29.296875 
L 19.671875 0 
L 9.8125 0 
z
" id="DejaVuSans-50"/>
     </defs>
     <g transform="translate(253 85.718438)scale(0.1 -0.1)">
      <use xlink:href="#DejaVuSans-41"/>
      <use x="68.408203" xlink:href="#DejaVuSans-50"/>
      <use x="128.710938" xlink:href="#DejaVuSans-31"/>
     </g>
    </g>
    <g id="line2d_54">
     <path d="M 225 96.896563 
L 245 96.896563 
" style="fill:none;stroke:#ff0000;stroke-linecap:square;stroke-width:1.5;"/>
    </g>
    <g id="line2d_55"/>
    <g id="text_18">
     <!-- AP2 -->
     <g transform="translate(253 100.396563)scale(0.1 -0.1)">
      <use xlink:href="#DejaVuSans-41"/>
      <use x="68.408203" xlink:href="#DejaVuSans-50"/>
      <use x="128.710938" xlink:href="#DejaVuSans-32"/>
     </g>
    </g>
    <g id="line2d_56">
     <path d="M 225 111.574688 
L 245 111.574688 
" style="fill:none;stroke:#008000;stroke-linecap:square;stroke-width:1.5;"/>
    </g>
    <g id="line2d_57"/>
    <g id="text_19">
     <!-- AP3 -->
     <g transform="translate(253 115.074688)scale(0.1 -0.1)">
      <use xlink:href="#DejaVuSans-41"/>
      <use x="68.408203" xlink:href="#DejaVuSans-50"/>
      <use x="128.710938" xlink:href="#DejaVuSans-33"/>
     </g>
    </g>
   </g>
  </g>
  <g id="axes_2">
   <g id="patch_8">
    <path d="M 946.472727 512.64 
L 1555.2 512.64 
L 1555.2 69.12 
L 946.472727 69.12 
z
" style="fill:#808080;"/>
   </g>
   <g id="matplotlib.axis_3">
    <g id="xtick_8">
     <g id="line2d_58">
      <g>
       <use style="stroke:#000000;stroke-width:0.8;" x="956.290909" xlink:href="#m9c1a6a0e1c" y="512.64"/>
      </g>
     </g>
     <g id="text_20">
      <!-- 0 -->
      <g transform="translate(953.109659 527.238438)scale(0.1 -0.1)">
       <use xlink:href="#DejaVuSans-30"/>
      </g>
     </g>
    </g>
    <g id="xtick_9">
     <g id="line2d_59">
      <g>
       <use style="stroke:#000000;stroke-width:0.8;" x="1054.472727" xlink:href="#m9c1a6a0e1c" y="512.64"/>
      </g>
     </g>
     <g id="text_21">
      <!-- 100 -->
      <g transform="translate(1044.928977 527.238438)scale(0.1 -0.1)">
       <use xlink:href="#DejaVuSans-31"/>
       <use x="63.623047" xlink:href="#DejaVuSans-30"/>
       <use x="127.246094" xlink:href="#DejaVuSans-30"/>
      </g>
     </g>
    </g>
    <g id="xtick_10">
     <g id="line2d_60">
      <g>
       <use style="stroke:#000000;stroke-width:0.8;" x="1152.654545" xlink:href="#m9c1a6a0e1c" y="512.64"/>
      </g>
     </g>
     <g id="text_22">
      <!-- 200 -->
      <g transform="translate(1143.110795 527.238438)scale(0.1 -0.1)">
       <use xlink:href="#DejaVuSans-32"/>
       <use x="63.623047" xlink:href="#DejaVuSans-30"/>
       <use x="127.246094" xlink:href="#DejaVuSans-30"/>
      </g>
     </g>
    </g>
    <g id="xtick_11">
     <g id="line2d_61">
      <g>
       <use style="stroke:#000000;stroke-width:0.8;" x="1250.836364" xlink:href="#m9c1a6a0e1c" y="512.64"/>
      </g>
     </g>
     <g id="text_23">
      <!-- 300 -->
      <g transform="translate(1241.292614 527.238438)scale(0.1 -0.1)">
       <use xlink:href="#DejaVuSans-33"/>
       <use x="63.623047" xlink:href="#DejaVuSans-30"/>
       <use x="127.246094" xlink:href="#DejaVuSans-30"/>
      </g>
     </g>
    </g>
    <g id="xtick_12">
     <g id="line2d_62">
      <g>
       <use style="stroke:#000000;stroke-width:0.8;" x="1349.018182" xlink:href="#m9c1a6a0e1c" y="512.64"/>
      </g>
     </g>
     <g id="text_24">
      <!-- 400 -->
      <g transform="translate(1339.474432 527.238438)scale(0.1 -0.1)">
       <use xlink:href="#DejaVuSans-34"/>
       <use x="63.623047" xlink:href="#DejaVuSans-30"/>
       <use x="127.246094" xlink:href="#DejaVuSans-30"/>
      </g>
     </g>
    </g>
    <g id="xtick_13">
     <g id="line2d_63">
      <g>
       <use style="stroke:#000000;stroke-width:0.8;" x="1447.2" xlink:href="#m9c1a6a0e1c" y="512.64"/>
      </g>
     </g>
     <g id="text_25">
      <!-- 500 -->
      <g transform="translate(1437.65625 527.238438)scale(0.1 -0.1)">
       <use xlink:href="#DejaVuSans-35"/>
       <use x="63.623047" xlink:href="#DejaVuSans-30"/>
       <use x="127.246094" xlink:href="#DejaVuSans-30"/>
      </g>
     </g>
    </g>
    <g id="xtick_14">
     <g id="line2d_64">
      <g>
       <use style="stroke:#000000;stroke-width:0.8;" x="1545.381818" xlink:href="#m9c1a6a0e1c" y="512.64"/>
      </g>
     </g>
     <g id="text_26">
      <!-- 600 -->
      <g transform="translate(1535.838068 527.238438)scale(0.1 -0.1)">
       <use xlink:href="#DejaVuSans-36"/>
       <use x="63.623047" xlink:href="#DejaVuSans-30"/>
       <use x="127.246094" xlink:href="#DejaVuSans-30"/>
      </g>
     </g>
    </g>
   </g>
   <g id="matplotlib.axis_4">
    <g id="ytick_10">
     <g id="line2d_65">
      <g>
       <use style="stroke:#000000;stroke-width:0.8;" x="946.472727" xlink:href="#m99f34257fa" y="502.08"/>
      </g>
     </g>
     <g id="text_27">
      <!-- 0 -->
      <g transform="translate(933.110227 505.879219)scale(0.1 -0.1)">
       <use xlink:href="#DejaVuSans-30"/>
      </g>
     </g>
    </g>
    <g id="ytick_11">
     <g id="line2d_66">
      <g>
       <use style="stroke:#000000;stroke-width:0.8;" x="946.472727" xlink:href="#m99f34257fa" y="449.28"/>
      </g>
     </g>
     <g id="text_28">
      <!-- 50 -->
      <g transform="translate(926.747727 453.079219)scale(0.1 -0.1)">
       <use xlink:href="#DejaVuSans-35"/>
       <use x="63.623047" xlink:href="#DejaVuSans-30"/>
      </g>
     </g>
    </g>
    <g id="ytick_12">
     <g id="line2d_67">
      <g>
       <use style="stroke:#000000;stroke-width:0.8;" x="946.472727" xlink:href="#m99f34257fa" y="396.48"/>
      </g>
     </g>
     <g id="text_29">
      <!-- 100 -->
      <g transform="translate(920.385227 400.279219)scale(0.1 -0.1)">
       <use xlink:href="#DejaVuSans-31"/>
       <use x="63.623047" xlink:href="#DejaVuSans-30"/>
       <use x="127.246094" xlink:href="#DejaVuSans-30"/>
      </g>
     </g>
    </g>
    <g id="ytick_13">
     <g id="line2d_68">
      <g>
       <use style="stroke:#000000;stroke-width:0.8;" x="946.472727" xlink:href="#m99f34257fa" y="343.68"/>
      </g>
     </g>
     <g id="text_30">
      <!-- 150 -->
      <g transform="translate(920.385227 347.479219)scale(0.1 -0.1)">
       <use xlink:href="#DejaVuSans-31"/>
       <use x="63.623047" xlink:href="#DejaVuSans-35"/>
       <use x="127.246094" xlink:href="#DejaVuSans-30"/>
      </g>
     </g>
    </g>
    <g id="ytick_14">
     <g id="line2d_69">
      <g>
       <use style="stroke:#000000;stroke-width:0.8;" x="946.472727" xlink:href="#m99f34257fa" y="290.88"/>
      </g>
     </g>
     <g id="text_31">
      <!-- 200 -->
      <g transform="translate(920.385227 294.679219)scale(0.1 -0.1)">
       <use xlink:href="#DejaVuSans-32"/>
       <use x="63.623047" xlink:href="#DejaVuSans-30"/>
       <use x="127.246094" xlink:href="#DejaVuSans-30"/>
      </g>
     </g>
    </g>
    <g id="ytick_15">
     <g id="line2d_70">
      <g>
       <use style="stroke:#000000;stroke-width:0.8;" x="946.472727" xlink:href="#m99f34257fa" y="238.08"/>
      </g>
     </g>
     <g id="text_32">
      <!-- 250 -->
      <g transform="translate(920.385227 241.879219)scale(0.1 -0.1)">
       <use xlink:href="#DejaVuSans-32"/>
       <use x="63.623047" xlink:href="#DejaVuSans-35"/>
       <use x="127.246094" xlink:href="#DejaVuSans-30"/>
      </g>
     </g>
    </g>
    <g id="ytick_16">
     <g id="line2d_71">
      <g>
       <use style="stroke:#000000;stroke-width:0.8;" x="946.472727" xlink:href="#m99f34257fa" y="185.28"/>
      </g>
     </g>
     <g id="text_33">
      <!-- 300 -->
      <g transform="translate(920.385227 189.079219)scale(0.1 -0.1)">
       <use xlink:href="#DejaVuSans-33"/>
       <use x="63.623047" xlink:href="#DejaVuSans-30"/>
       <use x="127.246094" xlink:href="#DejaVuSans-30"/>
      </g>
     </g>
    </g>
    <g id="ytick_17">
     <g id="line2d_72">
      <g>
       <use style="stroke:#000000;stroke-width:0.8;" x="946.472727" xlink:href="#m99f34257fa" y="132.48"/>
      </g>
     </g>
     <g id="text_34">
      <!-- 350 -->
      <g transform="translate(920.385227 136.279219)scale(0.1 -0.1)">
       <use xlink:href="#DejaVuSans-33"/>
       <use x="63.623047" xlink:href="#DejaVuSans-35"/>
       <use x="127.246094" xlink:href="#DejaVuSans-30"/>
      </g>
     </g>
    </g>
    <g id="ytick_18">
     <g id="line2d_73">
      <g>
       <use style="stroke:#000000;stroke-width:0.8;" x="946.472727" xlink:href="#m99f34257fa" y="79.68"/>
      </g>
     </g>
     <g id="text_35">
      <!-- 400 -->
      <g transform="translate(920.385227 83.479219)scale(0.1 -0.1)">
       <use xlink:href="#DejaVuSans-34"/>
       <use x="63.623047" xlink:href="#DejaVuSans-30"/>
       <use x="127.246094" xlink:href="#DejaVuSans-30"/>
      </g>
     </g>
    </g>
   </g>
   <g id="line2d_74">
    <g clip-path="url(#p62282abfdb)">
     <use style="stroke:#000000;" x="1079.018182" xlink:href="#ma2e50d52ef" y="158.88"/>
    </g>
   </g>
   <g id="line2d_75">
    <path clip-path="url(#p62282abfdb)" d="M 1324.472727 158.88 
L 1323.978548 142.136085 
L 1322.498 125.459592 
L 1320.037044 108.917671 
L 1316.60559 92.576931 
L 1312.217456 76.50317 
L 1306.890311 60.761112 
L 1300.645605 45.414143 
L 1293.508483 30.524062 
L 1285.507685 16.150824 
L 1276.675427 2.352307 
L 1274.224337 -1 
M 883.809257 -1 
L 876.843021 9.176196 
L 868.422253 23.269169 
L 860.849481 37.908198 
L 854.155197 53.034339 
L 848.366357 68.586682 
L 843.50627 84.502605 
L 839.594507 100.718019 
L 836.646818 117.167631 
L 834.675074 133.785205 
L 833.687212 150.503826 
L 833.687212 167.256174 
L 834.675074 183.974795 
L 836.646818 200.592369 
L 839.594507 217.041981 
L 843.50627 233.257395 
L 848.366357 249.173318 
L 854.155197 264.725661 
L 860.849481 279.851802 
L 868.422253 294.490831 
L 876.843021 308.583804 
L 886.077877 322.073972 
L 896.089635 334.907016 
L 906.837982 347.031261 
L 918.279638 358.397888 
L 930.368531 368.961126 
L 943.055984 378.678442 
L 956.290909 387.510707 
L 970.020013 395.422356 
L 984.188015 402.381534 
L 998.737864 408.360216 
L 1013.610973 413.33433 
L 1028.747454 417.283846 
L 1044.086358 420.192861 
L 1059.56592 422.049661 
L 1075.123809 422.84677 
L 1090.697379 422.580978 
L 1106.223922 421.253355 
L 1121.640916 418.869247 
L 1136.886284 415.438254 
L 1151.898638 410.974192 
L 1166.617527 405.495035 
L 1180.983685 399.022847 
L 1194.939264 391.583688 
L 1208.428069 383.207514 
L 1221.395787 373.928051 
L 1233.7902 363.782667 
L 1245.561401 352.812211 
L 1256.661991 341.060859 
L 1267.047272 328.575929 
L 1276.675427 315.407693 
L 1285.507685 301.609176 
L 1293.508483 287.235938 
L 1300.645605 272.345857 
L 1306.890311 256.998888 
L 1312.217456 241.25683 
L 1316.60559 225.183069 
L 1320.037044 208.842329 
L 1322.498 192.300408 
L 1323.978548 175.623915 
L 1324.472727 158.88 
" style="fill:none;stroke:#ffc0cb;stroke-linecap:square;stroke-width:1.5;"/>
   </g>
   <g id="line2d_76">
    <g clip-path="url(#p62282abfdb)">
     <use style="stroke:#000000;" x="1422.654545" xlink:href="#ma2e50d52ef" y="158.88"/>
    </g>
   </g>
   <g id="line2d_77">
    <path clip-path="url(#p62282abfdb)" d="M 1668.109091 158.88 
L 1667.614911 142.136085 
L 1666.134363 125.459592 
L 1663.673408 108.917671 
L 1660.241954 92.576931 
L 1655.85382 76.50317 
L 1650.526674 60.761112 
L 1644.281968 45.414143 
L 1637.144847 30.524062 
L 1629.144049 16.150824 
L 1620.31179 2.352307 
L 1617.860701 -1 
M 1227.445621 -1 
L 1220.479385 9.176196 
L 1212.058617 23.269169 
L 1204.485844 37.908198 
L 1197.79156 53.034339 
L 1192.00272 68.586682 
L 1187.142634 84.502605 
L 1183.23087 100.718019 
L 1180.283182 117.167631 
L 1178.311437 133.785205 
L 1177.323576 150.503826 
L 1177.323576 167.256174 
L 1178.311437 183.974795 
L 1180.283182 200.592369 
L 1183.23087 217.041981 
L 1187.142634 233.257395 
L 1192.00272 249.173318 
L 1197.79156 264.725661 
L 1204.485844 279.851802 
L 1212.058617 294.490831 
L 1220.479385 308.583804 
L 1229.71424 322.073972 
L 1239.725999 334.907016 
L 1250.474346 347.031261 
L 1261.916002 358.397888 
L 1274.004895 368.961126 
L 1286.692348 378.678442 
L 1299.927273 387.510707 
L 1313.656377 395.422356 
L 1327.824378 402.381534 
L 1342.374227 408.360216 
L 1357.247337 413.33433 
L 1372.383818 417.283846 
L 1387.722722 420.192861 
L 1403.202283 422.049661 
L 1418.760173 422.84677 
L 1434.333743 422.580978 
L 1449.860285 421.253355 
L 1465.27728 418.869247 
L 1480.522648 415.438254 
L 1495.535001 410.974192 
L 1510.253891 405.495035 
L 1524.620049 399.022847 
L 1538.575627 391.583688 
L 1552.064433 383.207514 
L 1565.032151 373.928051 
L 1577.426564 363.782667 
L 1589.197765 352.812211 
L 1600.298355 341.060859 
L 1610.683636 328.575929 
L 1620.31179 315.407693 
L 1629.144049 301.609176 
L 1637.144847 287.235938 
L 1644.281968 272.345857 
L 1650.526674 256.998888 
L 1655.85382 241.25683 
L 1660.241954 225.183069 
L 1663.673408 208.842329 
L 1666.134363 192.300408 
L 1667.614911 175.623915 
L 1668.109091 158.88 
" style="fill:none;stroke:#ff0000;stroke-linecap:square;stroke-width:1.5;"/>
   </g>
   <g id="line2d_78">
    <g clip-path="url(#p62282abfdb)">
     <use style="stroke:#000000;" x="1250.836364" xlink:href="#ma2e50d52ef" y="449.28"/>
    </g>
   </g>
   <g id="line2d_79">
    <path clip-path="url(#p62282abfdb)" d="M 1496.290909 449.28 
L 1495.79673 432.536085 
L 1494.316181 415.859592 
L 1491.855226 399.317671 
L 1488.423772 382.976931 
L 1484.035638 366.90317 
L 1478.708493 351.161112 
L 1472.463787 335.814143 
L 1465.326665 320.924062 
L 1457.325867 306.550824 
L 1448.493609 292.752307 
L 1438.865454 279.584071 
L 1428.480173 267.099141 
L 1417.379583 255.347789 
L 1405.608382 244.377333 
L 1393.213969 234.231949 
L 1380.246251 224.952486 
L 1366.757446 216.576312 
L 1352.801867 209.137153 
L 1338.435709 202.664965 
L 1323.716819 197.185808 
L 1308.704466 192.721746 
L 1293.459098 189.290753 
L 1278.042104 186.906645 
L 1262.515561 185.579022 
L 1246.941991 185.31323 
L 1231.384101 186.110339 
L 1215.90454 187.967139 
L 1200.565636 190.876154 
L 1185.429155 194.82567 
L 1170.556045 199.799784 
L 1156.006196 205.778466 
L 1141.838195 212.737644 
L 1128.109091 220.649293 
L 1114.874166 229.481558 
L 1102.186713 239.198874 
L 1090.09782 249.762112 
L 1078.656164 261.128739 
L 1067.907817 273.252984 
L 1057.896059 286.086028 
L 1048.661203 299.576196 
L 1040.240435 313.669169 
L 1032.667663 328.308198 
L 1025.973379 343.434339 
L 1020.184539 358.986682 
L 1015.324452 374.902605 
L 1011.412689 391.118019 
L 1008.465 407.567631 
L 1006.493255 424.185205 
L 1005.505394 440.903826 
L 1005.505394 457.656174 
L 1006.493255 474.374795 
L 1008.465 490.992369 
L 1011.412689 507.441981 
L 1015.324452 523.657395 
L 1020.184539 539.573318 
L 1025.973379 555.125661 
L 1032.667663 570.251802 
L 1036.158507 577 
M 1465.631484 577 
L 1472.463787 562.745857 
L 1478.708493 547.398888 
L 1484.035638 531.65683 
L 1488.423772 515.583069 
L 1491.855226 499.242329 
L 1494.316181 482.700408 
L 1495.79673 466.023915 
L 1496.290909 449.28 
" style="fill:none;stroke:#008000;stroke-linecap:square;stroke-width:1.5;"/>
   </g>
   <g id="line2d_80">
    <path clip-path="url(#p62282abfdb)" d="M 1270.472727 79.68 
" style="fill:none;stroke:#ff0000;stroke-linecap:square;stroke-width:1.5;"/>
    <defs>
     <path d="M -3 3 
L 3 3 
L 3 -3 
L -3 -3 
z
" id="m902a81cc17" style="stroke:#ff0000;stroke-linejoin:miter;"/>
    </defs>
    <g clip-path="url(#p62282abfdb)">
     <use style="fill:#ff0000;stroke:#ff0000;stroke-linejoin:miter;" x="1270.472727" xlink:href="#m902a81cc17" y="79.68"/>
    </g>
   </g>
   <g id="line2d_81">
    <path clip-path="url(#p62282abfdb)" d="M 1280.290909 79.68 
" style="fill:none;stroke:#ff0000;stroke-linecap:square;stroke-width:1.5;"/>
    <g clip-path="url(#p62282abfdb)">
     <use style="fill:#ff0000;stroke:#ff0000;stroke-linejoin:miter;" x="1280.290909" xlink:href="#ma884231057" y="79.68"/>
    </g>
   </g>
   <g id="line2d_82">
    <path clip-path="url(#p62282abfdb)" d="M 1290.109091 79.68 
" style="fill:none;stroke:#ff0000;stroke-linecap:square;stroke-width:1.5;"/>
    <g clip-path="url(#p62282abfdb)">
     <use style="fill:#ff0000;stroke:#ff0000;stroke-linejoin:miter;" x="1290.109091" xlink:href="#ma884231057" y="79.68"/>
    </g>
   </g>
   <g id="line2d_83">
    <path clip-path="url(#p62282abfdb)" d="M 1299.927273 79.68 
" style="fill:none;stroke:#ff0000;stroke-linecap:square;stroke-width:1.5;"/>
    <g clip-path="url(#p62282abfdb)">
     <use style="fill:#ff0000;stroke:#ff0000;stroke-linejoin:miter;" x="1299.927273" xlink:href="#ma884231057" y="79.68"/>
    </g>
   </g>
   <g id="line2d_84">
    <path clip-path="url(#p62282abfdb)" d="M 1309.745455 79.68 
" style="fill:none;stroke:#ff0000;stroke-linecap:square;stroke-width:1.5;"/>
    <g clip-path="url(#p62282abfdb)">
     <use style="fill:#ff0000;stroke:#ff0000;stroke-linejoin:miter;" x="1309.745455" xlink:href="#ma884231057" y="79.68"/>
    </g>
   </g>
   <g id="line2d_85">
    <path clip-path="url(#p62282abfdb)" d="M 1319.563636 79.68 
" style="fill:none;stroke:#ff0000;stroke-linecap:square;stroke-width:1.5;"/>
    <g clip-path="url(#p62282abfdb)">
     <use style="fill:#ff0000;stroke:#ff0000;stroke-linejoin:miter;" x="1319.563636" xlink:href="#ma884231057" y="79.68"/>
    </g>
   </g>
   <g id="line2d_86">
    <path clip-path="url(#p62282abfdb)" d="M 1329.381818 79.68 
" style="fill:none;stroke:#ff0000;stroke-linecap:square;stroke-width:1.5;"/>
    <g clip-path="url(#p62282abfdb)">
     <use style="fill:#ff0000;stroke:#ff0000;stroke-linejoin:miter;" x="1329.381818" xlink:href="#ma884231057" y="79.68"/>
    </g>
   </g>
   <g id="line2d_87">
    <path clip-path="url(#p62282abfdb)" d="M 1339.2 79.68 
" style="fill:none;stroke:#ff0000;stroke-linecap:square;stroke-width:1.5;"/>
    <g clip-path="url(#p62282abfdb)">
     <use style="fill:#ff0000;stroke:#ff0000;stroke-linejoin:miter;" x="1339.2" xlink:href="#ma884231057" y="79.68"/>
    </g>
   </g>
   <g id="line2d_88">
    <path clip-path="url(#p62282abfdb)" d="M 1349.018182 79.68 
" style="fill:none;stroke:#ff0000;stroke-linecap:square;stroke-width:1.5;"/>
    <g clip-path="url(#p62282abfdb)">
     <use style="fill:#ff0000;stroke:#ff0000;stroke-linejoin:miter;" x="1349.018182" xlink:href="#ma884231057" y="79.68"/>
    </g>
   </g>
   <g id="line2d_89">
    <path clip-path="url(#p62282abfdb)" d="M 1358.836364 79.68 
" style="fill:none;stroke:#ff0000;stroke-linecap:square;stroke-width:1.5;"/>
    <g clip-path="url(#p62282abfdb)">
     <use style="fill:#ff0000;stroke:#ff0000;stroke-linejoin:miter;" x="1358.836364" xlink:href="#ma884231057" y="79.68"/>
    </g>
   </g>
   <g id="line2d_90">
    <path clip-path="url(#p62282abfdb)" d="M 1368.654545 79.68 
" style="fill:none;stroke:#ff0000;stroke-linecap:square;stroke-width:1.5;"/>
    <g clip-path="url(#p62282abfdb)">
     <use style="fill:#ff0000;stroke:#ff0000;stroke-linejoin:miter;" x="1368.654545" xlink:href="#ma884231057" y="79.68"/>
    </g>
   </g>
   <g id="line2d_91">
    <path clip-path="url(#p62282abfdb)" d="M 1378.472727 79.68 
" style="fill:none;stroke:#ff0000;stroke-linecap:square;stroke-width:1.5;"/>
    <g clip-path="url(#p62282abfdb)">
     <use style="fill:#ff0000;stroke:#ff0000;stroke-linejoin:miter;" x="1378.472727" xlink:href="#ma884231057" y="79.68"/>
    </g>
   </g>
   <g id="line2d_92">
    <path clip-path="url(#p62282abfdb)" d="M 1388.290909 79.68 
" style="fill:none;stroke:#ff0000;stroke-linecap:square;stroke-width:1.5;"/>
    <g clip-path="url(#p62282abfdb)">
     <use style="fill:#ff0000;stroke:#ff0000;stroke-linejoin:miter;" x="1388.290909" xlink:href="#ma884231057" y="79.68"/>
    </g>
   </g>
   <g id="line2d_93">
    <path clip-path="url(#p62282abfdb)" d="M 1398.109091 79.68 
" style="fill:none;stroke:#ff0000;stroke-linecap:square;stroke-width:1.5;"/>
    <g clip-path="url(#p62282abfdb)">
     <use style="fill:#ff0000;stroke:#ff0000;stroke-linejoin:miter;" x="1398.109091" xlink:href="#ma884231057" y="79.68"/>
    </g>
   </g>
   <g id="line2d_94">
    <path clip-path="url(#p62282abfdb)" d="M 1407.927273 79.68 
" style="fill:none;stroke:#ff0000;stroke-linecap:square;stroke-width:1.5;"/>
    <g clip-path="url(#p62282abfdb)">
     <use style="fill:#ff0000;stroke:#ff0000;stroke-linejoin:miter;" x="1407.927273" xlink:href="#ma884231057" y="79.68"/>
    </g>
   </g>
   <g id="line2d_95">
    <path clip-path="url(#p62282abfdb)" d="M 1417.745455 79.68 
" style="fill:none;stroke:#ff0000;stroke-linecap:square;stroke-width:1.5;"/>
    <g clip-path="url(#p62282abfdb)">
     <use style="fill:#ff0000;stroke:#ff0000;stroke-linejoin:miter;" x="1417.745455" xlink:href="#ma884231057" y="79.68"/>
    </g>
   </g>
   <g id="line2d_96">
    <path clip-path="url(#p62282abfdb)" d="M 1427.563636 79.68 
" style="fill:none;stroke:#ff0000;stroke-linecap:square;stroke-width:1.5;"/>
    <g clip-path="url(#p62282abfdb)">
     <use style="fill:#ff0000;stroke:#ff0000;stroke-linejoin:miter;" x="1427.563636" xlink:href="#ma884231057" y="79.68"/>
    </g>
   </g>
   <g id="line2d_97">
    <path clip-path="url(#p62282abfdb)" d="M 1437.381818 79.68 
" style="fill:none;stroke:#ff0000;stroke-linecap:square;stroke-width:1.5;"/>
    <g clip-path="url(#p62282abfdb)">
     <use style="fill:#ff0000;stroke:#ff0000;stroke-linejoin:miter;" x="1437.381818" xlink:href="#ma884231057" y="79.68"/>
    </g>
   </g>
   <g id="line2d_98">
    <path clip-path="url(#p62282abfdb)" d="M 1447.2 79.68 
" style="fill:none;stroke:#ff0000;stroke-linecap:square;stroke-width:1.5;"/>
    <g clip-path="url(#p62282abfdb)">
     <use style="fill:#ff0000;stroke:#ff0000;stroke-linejoin:miter;" x="1447.2" xlink:href="#ma884231057" y="79.68"/>
    </g>
   </g>
   <g id="line2d_99">
    <path clip-path="url(#p62282abfdb)" d="M 1457.018182 79.68 
" style="fill:none;stroke:#ff0000;stroke-linecap:square;stroke-width:1.5;"/>
    <g clip-path="url(#p62282abfdb)">
     <use style="fill:#ff0000;stroke:#ff0000;stroke-linejoin:miter;" x="1457.018182" xlink:href="#ma884231057" y="79.68"/>
    </g>
   </g>
   <g id="line2d_100">
    <path clip-path="url(#p62282abfdb)" d="M 1466.836364 79.68 
" style="fill:none;stroke:#ff0000;stroke-linecap:square;stroke-width:1.5;"/>
    <g clip-path="url(#p62282abfdb)">
     <use style="fill:#ff0000;stroke:#ff0000;stroke-linejoin:miter;" x="1466.836364" xlink:href="#ma884231057" y="79.68"/>
    </g>
   </g>
   <g id="line2d_101">
    <path clip-path="url(#p62282abfdb)" d="M 1476.654545 79.68 
" style="fill:none;stroke:#ff0000;stroke-linecap:square;stroke-width:1.5;"/>
    <g clip-path="url(#p62282abfdb)">
     <use style="fill:#ff0000;stroke:#ff0000;stroke-linejoin:miter;" x="1476.654545" xlink:href="#ma884231057" y="79.68"/>
    </g>
   </g>
   <g id="line2d_102">
    <path clip-path="url(#p62282abfdb)" d="M 1486.472727 79.68 
" style="fill:none;stroke:#ff0000;stroke-linecap:square;stroke-width:1.5;"/>
    <g clip-path="url(#p62282abfdb)">
     <use style="fill:#ff0000;stroke:#ff0000;stroke-linejoin:miter;" x="1486.472727" xlink:href="#ma884231057" y="79.68"/>
    </g>
   </g>
   <g id="line2d_103">
    <path clip-path="url(#p62282abfdb)" d="M 1496.290909 79.68 
" style="fill:none;stroke:#ff0000;stroke-linecap:square;stroke-width:1.5;"/>
    <g clip-path="url(#p62282abfdb)">
     <use style="fill:#ff0000;stroke:#ff0000;stroke-linejoin:miter;" x="1496.290909" xlink:href="#ma884231057" y="79.68"/>
    </g>
   </g>
   <g id="line2d_104">
    <path clip-path="url(#p62282abfdb)" d="M 1506.109091 79.68 
" style="fill:none;stroke:#ff0000;stroke-linecap:square;stroke-width:1.5;"/>
    <g clip-path="url(#p62282abfdb)">
     <use style="fill:#ff0000;stroke:#ff0000;stroke-linejoin:miter;" x="1506.109091" xlink:href="#ma884231057" y="79.68"/>
    </g>
   </g>
   <g id="line2d_105">
    <path clip-path="url(#p62282abfdb)" d="M 1515.927273 79.68 
" style="fill:none;stroke:#ff0000;stroke-linecap:square;stroke-width:1.5;"/>
    <g clip-path="url(#p62282abfdb)">
     <use style="fill:#ff0000;stroke:#ff0000;stroke-linejoin:miter;" x="1515.927273" xlink:href="#ma884231057" y="79.68"/>
    </g>
   </g>
   <g id="line2d_106">
    <path clip-path="url(#p62282abfdb)" d="M 1525.745455 79.68 
" style="fill:none;stroke:#ff0000;stroke-linecap:square;stroke-width:1.5;"/>
    <g clip-path="url(#p62282abfdb)">
     <use style="fill:#ff0000;stroke:#ff0000;stroke-linejoin:miter;" x="1525.745455" xlink:href="#ma884231057" y="79.68"/>
    </g>
   </g>
   <g id="line2d_107">
    <path clip-path="url(#p62282abfdb)" d="M 1535.563636 79.68 
" style="fill:none;stroke:#ff0000;stroke-linecap:square;stroke-width:1.5;"/>
    <g clip-path="url(#p62282abfdb)">
     <use style="fill:#ff0000;stroke:#ff0000;stroke-linejoin:miter;" x="1535.563636" xlink:href="#ma884231057" y="79.68"/>
    </g>
   </g>
   <g id="line2d_108">
    <g clip-path="url(#p62282abfdb)">
     <use style="fill:#ff0000;stroke:#ff0000;" x="1545.381818" xlink:href="#m7d92b632dd" y="79.68"/>
    </g>
   </g>
   <g id="patch_9">
    <path d="M 946.472727 512.64 
L 946.472727 69.12 
" style="fill:none;stroke:#000000;stroke-linecap:square;stroke-linejoin:miter;stroke-width:0.8;"/>
   </g>
   <g id="patch_10">
    <path d="M 1555.2 512.64 
L 1555.2 69.12 
" style="fill:none;stroke:#000000;stroke-linecap:square;stroke-linejoin:miter;stroke-width:0.8;"/>
   </g>
   <g id="patch_11">
    <path d="M 946.472727 512.64 
L 1555.2 512.64 
" style="fill:none;stroke:#000000;stroke-linecap:square;stroke-linejoin:miter;stroke-width:0.8;"/>
   </g>
   <g id="patch_12">
    <path d="M 946.472727 69.12 
L 1555.2 69.12 
" style="fill:none;stroke:#000000;stroke-linecap:square;stroke-linejoin:miter;stroke-width:0.8;"/>
   </g>
   <g id="legend_2">
    <g id="patch_13">
     <path d="M 953.472727 121.154375 
L 1004.70554 121.154375 
Q 1006.70554 121.154375 1006.70554 119.154375 
L 1006.70554 76.12 
Q 1006.70554 74.12 1004.70554 74.12 
L 953.472727 74.12 
Q 951.472727 74.12 951.472727 76.12 
L 951.472727 119.154375 
Q 951.472727 121.154375 953.472727 121.154375 
z
" style="fill:#ffffff;opacity:0.8;stroke:#cccccc;stroke-linejoin:miter;"/>
    </g>
    <g id="line2d_109">
     <path d="M 955.472727 82.218438 
L 975.472727 82.218438 
" style="fill:none;stroke:#ffc0cb;stroke-linecap:square;stroke-width:1.5;"/>
    </g>
    <g id="line2d_110"/>
    <g id="text_36">
     <!-- AP1 -->
     <g transform="translate(983.472727 85.718438)scale(0.1 -0.1)">
      <use xlink:href="#DejaVuSans-41"/>
      <use x="68.408203" xlink:href="#DejaVuSans-50"/>
      <use x="128.710938" xlink:href="#DejaVuSans-31"/>
     </g>
    </g>
    <g id="line2d_111">
     <path d="M 955.472727 96.896563 
L 975.472727 96.896563 
" style="fill:none;stroke:#ff0000;stroke-linecap:square;stroke-width:1.5;"/>
    </g>
    <g id="line2d_112"/>
    <g id="text_37">
     <!-- AP2 -->
     <g transform="translate(983.472727 100.396563)scale(0.1 -0.1)">
      <use xlink:href="#DejaVuSans-41"/>
      <use x="68.408203" xlink:href="#DejaVuSans-50"/>
      <use x="128.710938" xlink:href="#DejaVuSans-32"/>
     </g>
    </g>
    <g id="line2d_113">
     <path d="M 955.472727 111.574688 
L 975.472727 111.574688 
" style="fill:none;stroke:#008000;stroke-linecap:square;stroke-width:1.5;"/>
    </g>
    <g id="line2d_114"/>
    <g id="text_38">
     <!-- AP3 -->
     <g transform="translate(983.472727 115.074688)scale(0.1 -0.1)">
      <use xlink:href="#DejaVuSans-41"/>
      <use x="68.408203" xlink:href="#DejaVuSans-50"/>
      <use x="128.710938" xlink:href="#DejaVuSans-33"/>
     </g>
    </g>
   </g>
  </g>
  <g id="text_39">
   <!-- Simulador X Q-Learing - - - Rota 429 -->
   <defs>
    <path d="M 53.515625 70.515625 
L 53.515625 60.890625 
Q 47.90625 63.578125 42.921875 64.890625 
Q 37.9375 66.21875 33.296875 66.21875 
Q 25.25 66.21875 20.875 63.09375 
Q 16.5 59.96875 16.5 54.203125 
Q 16.5 49.359375 19.40625 46.890625 
Q 22.3125 44.4375 30.421875 42.921875 
L 36.375 41.703125 
Q 47.40625 39.59375 52.65625 34.296875 
Q 57.90625 29 57.90625 20.125 
Q 57.90625 9.515625 50.796875 4.046875 
Q 43.703125 -1.421875 29.984375 -1.421875 
Q 24.8125 -1.421875 18.96875 -0.25 
Q 13.140625 0.921875 6.890625 3.21875 
L 6.890625 13.375 
Q 12.890625 10.015625 18.65625 8.296875 
Q 24.421875 6.59375 29.984375 6.59375 
Q 38.421875 6.59375 43.015625 9.90625 
Q 47.609375 13.234375 47.609375 19.390625 
Q 47.609375 24.75 44.3125 27.78125 
Q 41.015625 30.8125 33.5 32.328125 
L 27.484375 33.5 
Q 16.453125 35.6875 11.515625 40.375 
Q 6.59375 45.0625 6.59375 53.421875 
Q 6.59375 63.09375 13.40625 68.65625 
Q 20.21875 74.21875 32.171875 74.21875 
Q 37.3125 74.21875 42.625 73.28125 
Q 47.953125 72.359375 53.515625 70.515625 
z
" id="DejaVuSans-53"/>
    <path d="M 9.421875 54.6875 
L 18.40625 54.6875 
L 18.40625 0 
L 9.421875 0 
z
M 9.421875 75.984375 
L 18.40625 75.984375 
L 18.40625 64.59375 
L 9.421875 64.59375 
z
" id="DejaVuSans-69"/>
    <path d="M 52 44.1875 
Q 55.375 50.25 60.0625 53.125 
Q 64.75 56 71.09375 56 
Q 79.640625 56 84.28125 50.015625 
Q 88.921875 44.046875 88.921875 33.015625 
L 88.921875 0 
L 79.890625 0 
L 79.890625 32.71875 
Q 79.890625 40.578125 77.09375 44.375 
Q 74.3125 48.1875 68.609375 48.1875 
Q 61.625 48.1875 57.5625 43.546875 
Q 53.515625 38.921875 53.515625 30.90625 
L 53.515625 0 
L 44.484375 0 
L 44.484375 32.71875 
Q 44.484375 40.625 41.703125 44.40625 
Q 38.921875 48.1875 33.109375 48.1875 
Q 26.21875 48.1875 22.15625 43.53125 
Q 18.109375 38.875 18.109375 30.90625 
L 18.109375 0 
L 9.078125 0 
L 9.078125 54.6875 
L 18.109375 54.6875 
L 18.109375 46.1875 
Q 21.1875 51.21875 25.484375 53.609375 
Q 29.78125 56 35.6875 56 
Q 41.65625 56 45.828125 52.96875 
Q 50 49.953125 52 44.1875 
z
" id="DejaVuSans-6d"/>
    <path d="M 8.5 21.578125 
L 8.5 54.6875 
L 17.484375 54.6875 
L 17.484375 21.921875 
Q 17.484375 14.15625 20.5 10.265625 
Q 23.53125 6.390625 29.59375 6.390625 
Q 36.859375 6.390625 41.078125 11.03125 
Q 45.3125 15.671875 45.3125 23.6875 
L 45.3125 54.6875 
L 54.296875 54.6875 
L 54.296875 0 
L 45.3125 0 
L 45.3125 8.40625 
Q 42.046875 3.421875 37.71875 1 
Q 33.40625 -1.421875 27.6875 -1.421875 
Q 18.265625 -1.421875 13.375 4.4375 
Q 8.5 10.296875 8.5 21.578125 
z
M 31.109375 56 
z
" id="DejaVuSans-75"/>
    <path d="M 9.421875 75.984375 
L 18.40625 75.984375 
L 18.40625 0 
L 9.421875 0 
z
" id="DejaVuSans-6c"/>
    <path d="M 34.28125 27.484375 
Q 23.390625 27.484375 19.1875 25 
Q 14.984375 22.515625 14.984375 16.5 
Q 14.984375 11.71875 18.140625 8.90625 
Q 21.296875 6.109375 26.703125 6.109375 
Q 34.1875 6.109375 38.703125 11.40625 
Q 43.21875 16.703125 43.21875 25.484375 
L 43.21875 27.484375 
z
M 52.203125 31.203125 
L 52.203125 0 
L 43.21875 0 
L 43.21875 8.296875 
Q 40.140625 3.328125 35.546875 0.953125 
Q 30.953125 -1.421875 24.3125 -1.421875 
Q 15.921875 -1.421875 10.953125 3.296875 
Q 6 8.015625 6 15.921875 
Q 6 25.140625 12.171875 29.828125 
Q 18.359375 34.515625 30.609375 34.515625 
L 43.21875 34.515625 
L 43.21875 35.40625 
Q 43.21875 41.609375 39.140625 45 
Q 35.0625 48.390625 27.6875 48.390625 
Q 23 48.390625 18.546875 47.265625 
Q 14.109375 46.140625 10.015625 43.890625 
L 10.015625 52.203125 
Q 14.9375 54.109375 19.578125 55.046875 
Q 24.21875 56 28.609375 56 
Q 40.484375 56 46.34375 49.84375 
Q 52.203125 43.703125 52.203125 31.203125 
z
" id="DejaVuSans-61"/>
    <path d="M 45.40625 46.390625 
L 45.40625 75.984375 
L 54.390625 75.984375 
L 54.390625 0 
L 45.40625 0 
L 45.40625 8.203125 
Q 42.578125 3.328125 38.25 0.953125 
Q 33.9375 -1.421875 27.875 -1.421875 
Q 17.96875 -1.421875 11.734375 6.484375 
Q 5.515625 14.40625 5.515625 27.296875 
Q 5.515625 40.1875 11.734375 48.09375 
Q 17.96875 56 27.875 56 
Q 33.9375 56 38.25 53.625 
Q 42.578125 51.265625 45.40625 46.390625 
z
M 14.796875 27.296875 
Q 14.796875 17.390625 18.875 11.75 
Q 22.953125 6.109375 30.078125 6.109375 
Q 37.203125 6.109375 41.296875 11.75 
Q 45.40625 17.390625 45.40625 27.296875 
Q 45.40625 37.203125 41.296875 42.84375 
Q 37.203125 48.484375 30.078125 48.484375 
Q 22.953125 48.484375 18.875 42.84375 
Q 14.796875 37.203125 14.796875 27.296875 
z
" id="DejaVuSans-64"/>
    <path d="M 30.609375 48.390625 
Q 23.390625 48.390625 19.1875 42.75 
Q 14.984375 37.109375 14.984375 27.296875 
Q 14.984375 17.484375 19.15625 11.84375 
Q 23.34375 6.203125 30.609375 6.203125 
Q 37.796875 6.203125 41.984375 11.859375 
Q 46.1875 17.53125 46.1875 27.296875 
Q 46.1875 37.015625 41.984375 42.703125 
Q 37.796875 48.390625 30.609375 48.390625 
z
M 30.609375 56 
Q 42.328125 56 49.015625 48.375 
Q 55.71875 40.765625 55.71875 27.296875 
Q 55.71875 13.875 49.015625 6.21875 
Q 42.328125 -1.421875 30.609375 -1.421875 
Q 18.84375 -1.421875 12.171875 6.21875 
Q 5.515625 13.875 5.515625 27.296875 
Q 5.515625 40.765625 12.171875 48.375 
Q 18.84375 56 30.609375 56 
z
" id="DejaVuSans-6f"/>
    <path d="M 41.109375 46.296875 
Q 39.59375 47.171875 37.8125 47.578125 
Q 36.03125 48 33.890625 48 
Q 26.265625 48 22.1875 43.046875 
Q 18.109375 38.09375 18.109375 28.8125 
L 18.109375 0 
L 9.078125 0 
L 9.078125 54.6875 
L 18.109375 54.6875 
L 18.109375 46.1875 
Q 20.953125 51.171875 25.484375 53.578125 
Q 30.03125 56 36.53125 56 
Q 37.453125 56 38.578125 55.875 
Q 39.703125 55.765625 41.0625 55.515625 
z
" id="DejaVuSans-72"/>
    <path id="DejaVuSans-20"/>
    <path d="M 6.296875 72.90625 
L 16.890625 72.90625 
L 35.015625 45.796875 
L 53.21875 72.90625 
L 63.8125 72.90625 
L 40.375 37.890625 
L 65.375 0 
L 54.78125 0 
L 34.28125 31 
L 13.625 0 
L 2.984375 0 
L 29 38.921875 
z
" id="DejaVuSans-58"/>
    <path d="M 39.40625 66.21875 
Q 28.65625 66.21875 22.328125 58.203125 
Q 16.015625 50.203125 16.015625 36.375 
Q 16.015625 22.609375 22.328125 14.59375 
Q 28.65625 6.59375 39.40625 6.59375 
Q 50.140625 6.59375 56.421875 14.59375 
Q 62.703125 22.609375 62.703125 36.375 
Q 62.703125 50.203125 56.421875 58.203125 
Q 50.140625 66.21875 39.40625 66.21875 
z
M 53.21875 1.3125 
L 66.21875 -12.890625 
L 54.296875 -12.890625 
L 43.5 -1.21875 
Q 41.890625 -1.3125 41.03125 -1.359375 
Q 40.1875 -1.421875 39.40625 -1.421875 
Q 24.03125 -1.421875 14.8125 8.859375 
Q 5.609375 19.140625 5.609375 36.375 
Q 5.609375 53.65625 14.8125 63.9375 
Q 24.03125 74.21875 39.40625 74.21875 
Q 54.734375 74.21875 63.90625 63.9375 
Q 73.09375 53.65625 73.09375 36.375 
Q 73.09375 23.6875 67.984375 14.640625 
Q 62.890625 5.609375 53.21875 1.3125 
z
" id="DejaVuSans-51"/>
    <path d="M 4.890625 31.390625 
L 31.203125 31.390625 
L 31.203125 23.390625 
L 4.890625 23.390625 
z
" id="DejaVuSans-2d"/>
    <path d="M 9.8125 72.90625 
L 19.671875 72.90625 
L 19.671875 8.296875 
L 55.171875 8.296875 
L 55.171875 0 
L 9.8125 0 
z
" id="DejaVuSans-4c"/>
    <path d="M 56.203125 29.59375 
L 56.203125 25.203125 
L 14.890625 25.203125 
Q 15.484375 15.921875 20.484375 11.0625 
Q 25.484375 6.203125 34.421875 6.203125 
Q 39.59375 6.203125 44.453125 7.46875 
Q 49.3125 8.734375 54.109375 11.28125 
L 54.109375 2.78125 
Q 49.265625 0.734375 44.1875 -0.34375 
Q 39.109375 -1.421875 33.890625 -1.421875 
Q 20.796875 -1.421875 13.15625 6.1875 
Q 5.515625 13.8125 5.515625 26.8125 
Q 5.515625 40.234375 12.765625 48.109375 
Q 20.015625 56 32.328125 56 
Q 43.359375 56 49.78125 48.890625 
Q 56.203125 41.796875 56.203125 29.59375 
z
M 47.21875 32.234375 
Q 47.125 39.59375 43.09375 43.984375 
Q 39.0625 48.390625 32.421875 48.390625 
Q 24.90625 48.390625 20.390625 44.140625 
Q 15.875 39.890625 15.1875 32.171875 
z
" id="DejaVuSans-65"/>
    <path d="M 54.890625 33.015625 
L 54.890625 0 
L 45.90625 0 
L 45.90625 32.71875 
Q 45.90625 40.484375 42.875 44.328125 
Q 39.84375 48.1875 33.796875 48.1875 
Q 26.515625 48.1875 22.3125 43.546875 
Q 18.109375 38.921875 18.109375 30.90625 
L 18.109375 0 
L 9.078125 0 
L 9.078125 54.6875 
L 18.109375 54.6875 
L 18.109375 46.1875 
Q 21.34375 51.125 25.703125 53.5625 
Q 30.078125 56 35.796875 56 
Q 45.21875 56 50.046875 50.171875 
Q 54.890625 44.34375 54.890625 33.015625 
z
" id="DejaVuSans-6e"/>
    <path d="M 45.40625 27.984375 
Q 45.40625 37.75 41.375 43.109375 
Q 37.359375 48.484375 30.078125 48.484375 
Q 22.859375 48.484375 18.828125 43.109375 
Q 14.796875 37.75 14.796875 27.984375 
Q 14.796875 18.265625 18.828125 12.890625 
Q 22.859375 7.515625 30.078125 7.515625 
Q 37.359375 7.515625 41.375 12.890625 
Q 45.40625 18.265625 45.40625 27.984375 
z
M 54.390625 6.78125 
Q 54.390625 -7.171875 48.1875 -13.984375 
Q 42 -20.796875 29.203125 -20.796875 
Q 24.46875 -20.796875 20.265625 -20.09375 
Q 16.0625 -19.390625 12.109375 -17.921875 
L 12.109375 -9.1875 
Q 16.0625 -11.328125 19.921875 -12.34375 
Q 23.78125 -13.375 27.78125 -13.375 
Q 36.625 -13.375 41.015625 -8.765625 
Q 45.40625 -4.15625 45.40625 5.171875 
L 45.40625 9.625 
Q 42.625 4.78125 38.28125 2.390625 
Q 33.9375 0 27.875 0 
Q 17.828125 0 11.671875 7.65625 
Q 5.515625 15.328125 5.515625 27.984375 
Q 5.515625 40.671875 11.671875 48.328125 
Q 17.828125 56 27.875 56 
Q 33.9375 56 38.28125 53.609375 
Q 42.625 51.21875 45.40625 46.390625 
L 45.40625 54.6875 
L 54.390625 54.6875 
z
" id="DejaVuSans-67"/>
    <path d="M 44.390625 34.1875 
Q 47.5625 33.109375 50.5625 29.59375 
Q 53.5625 26.078125 56.59375 19.921875 
L 66.609375 0 
L 56 0 
L 46.6875 18.703125 
Q 43.0625 26.03125 39.671875 28.421875 
Q 36.28125 30.8125 30.421875 30.8125 
L 19.671875 30.8125 
L 19.671875 0 
L 9.8125 0 
L 9.8125 72.90625 
L 32.078125 72.90625 
Q 44.578125 72.90625 50.734375 67.671875 
Q 56.890625 62.453125 56.890625 51.90625 
Q 56.890625 45.015625 53.6875 40.46875 
Q 50.484375 35.9375 44.390625 34.1875 
z
M 19.671875 64.796875 
L 19.671875 38.921875 
L 32.078125 38.921875 
Q 39.203125 38.921875 42.84375 42.21875 
Q 46.484375 45.515625 46.484375 51.90625 
Q 46.484375 58.296875 42.84375 61.546875 
Q 39.203125 64.796875 32.078125 64.796875 
z
" id="DejaVuSans-52"/>
    <path d="M 18.3125 70.21875 
L 18.3125 54.6875 
L 36.8125 54.6875 
L 36.8125 47.703125 
L 18.3125 47.703125 
L 18.3125 18.015625 
Q 18.3125 11.328125 20.140625 9.421875 
Q 21.96875 7.515625 27.59375 7.515625 
L 36.8125 7.515625 
L 36.8125 0 
L 27.59375 0 
Q 17.1875 0 13.234375 3.875 
Q 9.28125 7.765625 9.28125 18.015625 
L 9.28125 47.703125 
L 2.6875 47.703125 
L 2.6875 54.6875 
L 9.28125 54.6875 
L 9.28125 70.21875 
z
" id="DejaVuSans-74"/>
    <path d="M 10.984375 1.515625 
L 10.984375 10.5 
Q 14.703125 8.734375 18.5 7.8125 
Q 22.3125 6.890625 25.984375 6.890625 
Q 35.75 6.890625 40.890625 13.453125 
Q 46.046875 20.015625 46.78125 33.40625 
Q 43.953125 29.203125 39.59375 26.953125 
Q 35.25 24.703125 29.984375 24.703125 
Q 19.046875 24.703125 12.671875 31.3125 
Q 6.296875 37.9375 6.296875 49.421875 
Q 6.296875 60.640625 12.9375 67.421875 
Q 19.578125 74.21875 30.609375 74.21875 
Q 43.265625 74.21875 49.921875 64.515625 
Q 56.59375 54.828125 56.59375 36.375 
Q 56.59375 19.140625 48.40625 8.859375 
Q 40.234375 -1.421875 26.421875 -1.421875 
Q 22.703125 -1.421875 18.890625 -0.6875 
Q 15.09375 0.046875 10.984375 1.515625 
z
M 30.609375 32.421875 
Q 37.25 32.421875 41.125 36.953125 
Q 45.015625 41.5 45.015625 49.421875 
Q 45.015625 57.28125 41.125 61.84375 
Q 37.25 66.40625 30.609375 66.40625 
Q 23.96875 66.40625 20.09375 61.84375 
Q 16.21875 57.28125 16.21875 49.421875 
Q 16.21875 41.5 20.09375 36.953125 
Q 23.96875 32.421875 30.609375 32.421875 
z
" id="DejaVuSans-39"/>
   </defs>
   <g transform="translate(758.784375 20.638125)scale(0.12 -0.12)">
    <use xlink:href="#DejaVuSans-53"/>
    <use x="63.476562" xlink:href="#DejaVuSans-69"/>
    <use x="91.259766" xlink:href="#DejaVuSans-6d"/>
    <use x="188.671875" xlink:href="#DejaVuSans-75"/>
    <use x="252.050781" xlink:href="#DejaVuSans-6c"/>
    <use x="279.833984" xlink:href="#DejaVuSans-61"/>
    <use x="341.113281" xlink:href="#DejaVuSans-64"/>
    <use x="404.589844" xlink:href="#DejaVuSans-6f"/>
    <use x="465.771484" xlink:href="#DejaVuSans-72"/>
    <use x="506.884766" xlink:href="#DejaVuSans-20"/>
    <use x="538.671875" xlink:href="#DejaVuSans-58"/>
    <use x="607.177734" xlink:href="#DejaVuSans-20"/>
    <use x="638.964844" xlink:href="#DejaVuSans-51"/>
    <use x="717.707031" xlink:href="#DejaVuSans-2d"/>
    <use x="753.791016" xlink:href="#DejaVuSans-4c"/>
    <use x="809.488281" xlink:href="#DejaVuSans-65"/>
    <use x="871.011719" xlink:href="#DejaVuSans-61"/>
    <use x="932.291016" xlink:href="#DejaVuSans-72"/>
    <use x="973.404297" xlink:href="#DejaVuSans-69"/>
    <use x="1001.1875" xlink:href="#DejaVuSans-6e"/>
    <use x="1064.566406" xlink:href="#DejaVuSans-67"/>
    <use x="1128.042969" xlink:href="#DejaVuSans-20"/>
    <use x="1159.830078" xlink:href="#DejaVuSans-2d"/>
    <use x="1195.914062" xlink:href="#DejaVuSans-2d"/>
    <use x="1231.998047" xlink:href="#DejaVuSans-2d"/>
    <use x="1268.082031" xlink:href="#DejaVuSans-20"/>
    <use x="1299.869141" xlink:href="#DejaVuSans-52"/>
    <use x="1369.289062" xlink:href="#DejaVuSans-6f"/>
    <use x="1430.470703" xlink:href="#DejaVuSans-74"/>
    <use x="1469.679688" xlink:href="#DejaVuSans-61"/>
    <use x="1530.958984" xlink:href="#DejaVuSans-20"/>
    <use x="1562.746094" xlink:href="#DejaVuSans-34"/>
    <use x="1626.369141" xlink:href="#DejaVuSans-32"/>
    <use x="1689.992188" xlink:href="#DejaVuSans-39"/>
   </g>
  </g>
 </g>
 <defs>
  <clipPath id="pde296802ec">
   <rect height="443.52" width="608.727273" x="216" y="69.12"/>
  </clipPath>
  <clipPath id="p62282abfdb">
   <rect height="443.52" width="608.727273" x="946.472727" y="69.12"/>
  </clipPath>
 </defs>
</svg>
