<?xml version="1.0" encoding="utf-8" standalone="no"?>
<!DOCTYPE svg PUBLIC "-//W3C//DTD SVG 1.1//EN"
  "http://www.w3.org/Graphics/SVG/1.1/DTD/svg11.dtd">
<!-- Created with matplotlib (http://matplotlib.org/) -->
<svg height="576pt" version="1.1" viewBox="0 0 1728 576" width="1728pt" xmlns="http://www.w3.org/2000/svg" xmlns:xlink="http://www.w3.org/1999/xlink">
 <defs>
  <style type="text/css">
*{stroke-linecap:butt;stroke-linejoin:round;}
  </style>
 </defs>
 <g id="figure_1">
  <g id="patch_1">
   <path d="M 0 576 
L 1728 576 
L 1728 0 
L 0 0 
z
" style="fill:#ffffff;"/>
  </g>
  <g id="axes_1">
   <g id="patch_2">
    <path d="M 216 512.64 
L 824.727273 512.64 
L 824.727273 69.12 
L 216 69.12 
z
" style="fill:#808080;"/>
   </g>
   <g id="matplotlib.axis_1">
    <g id="xtick_1">
     <g id="line2d_1">
      <defs>
       <path d="M 0 0 
L 0 3.5 
" id="mc6fccfcc4f" style="stroke:#000000;stroke-width:0.8;"/>
      </defs>
      <g>
       <use style="stroke:#000000;stroke-width:0.8;" x="222.616601" xlink:href="#mc6fccfcc4f" y="512.64"/>
      </g>
     </g>
     <g id="text_1">
      <!-- 0 -->
      <defs>
       <path d="M 31.78125 66.40625 
Q 24.171875 66.40625 20.328125 58.90625 
Q 16.5 51.421875 16.5 36.375 
Q 16.5 21.390625 20.328125 13.890625 
Q 24.171875 6.390625 31.78125 6.390625 
Q 39.453125 6.390625 43.28125 13.890625 
Q 47.125 21.390625 47.125 36.375 
Q 47.125 51.421875 43.28125 58.90625 
Q 39.453125 66.40625 31.78125 66.40625 
z
M 31.78125 74.21875 
Q 44.046875 74.21875 50.515625 64.515625 
Q 56.984375 54.828125 56.984375 36.375 
Q 56.984375 17.96875 50.515625 8.265625 
Q 44.046875 -1.421875 31.78125 -1.421875 
Q 19.53125 -1.421875 13.0625 8.265625 
Q 6.59375 17.96875 6.59375 36.375 
Q 6.59375 54.828125 13.0625 64.515625 
Q 19.53125 74.21875 31.78125 74.21875 
z
" id="DejaVuSans-30"/>
      </defs>
      <g transform="translate(219.435351 527.238438)scale(0.1 -0.1)">
       <use xlink:href="#DejaVuSans-30"/>
      </g>
     </g>
    </g>
    <g id="xtick_2">
     <g id="line2d_2">
      <g>
       <use style="stroke:#000000;stroke-width:0.8;" x="354.948617" xlink:href="#mc6fccfcc4f" y="512.64"/>
      </g>
     </g>
     <g id="text_2">
      <!-- 200 -->
      <defs>
       <path d="M 19.1875 8.296875 
L 53.609375 8.296875 
L 53.609375 0 
L 7.328125 0 
L 7.328125 8.296875 
Q 12.9375 14.109375 22.625 23.890625 
Q 32.328125 33.6875 34.8125 36.53125 
Q 39.546875 41.84375 41.421875 45.53125 
Q 43.3125 49.21875 43.3125 52.78125 
Q 43.3125 58.59375 39.234375 62.25 
Q 35.15625 65.921875 28.609375 65.921875 
Q 23.96875 65.921875 18.8125 64.3125 
Q 13.671875 62.703125 7.8125 59.421875 
L 7.8125 69.390625 
Q 13.765625 71.78125 18.9375 73 
Q 24.125 74.21875 28.421875 74.21875 
Q 39.75 74.21875 46.484375 68.546875 
Q 53.21875 62.890625 53.21875 53.421875 
Q 53.21875 48.921875 51.53125 44.890625 
Q 49.859375 40.875 45.40625 35.40625 
Q 44.1875 33.984375 37.640625 27.21875 
Q 31.109375 20.453125 19.1875 8.296875 
z
" id="DejaVuSans-32"/>
      </defs>
      <g transform="translate(345.404867 527.238438)scale(0.1 -0.1)">
       <use xlink:href="#DejaVuSans-32"/>
       <use x="63.623047" xlink:href="#DejaVuSans-30"/>
       <use x="127.246094" xlink:href="#DejaVuSans-30"/>
      </g>
     </g>
    </g>
    <g id="xtick_3">
     <g id="line2d_3">
      <g>
       <use style="stroke:#000000;stroke-width:0.8;" x="487.280632" xlink:href="#mc6fccfcc4f" y="512.64"/>
      </g>
     </g>
     <g id="text_3">
      <!-- 400 -->
      <defs>
       <path d="M 37.796875 64.3125 
L 12.890625 25.390625 
L 37.796875 25.390625 
z
M 35.203125 72.90625 
L 47.609375 72.90625 
L 47.609375 25.390625 
L 58.015625 25.390625 
L 58.015625 17.1875 
L 47.609375 17.1875 
L 47.609375 0 
L 37.796875 0 
L 37.796875 17.1875 
L 4.890625 17.1875 
L 4.890625 26.703125 
z
" id="DejaVuSans-34"/>
      </defs>
      <g transform="translate(477.736882 527.238438)scale(0.1 -0.1)">
       <use xlink:href="#DejaVuSans-34"/>
       <use x="63.623047" xlink:href="#DejaVuSans-30"/>
       <use x="127.246094" xlink:href="#DejaVuSans-30"/>
      </g>
     </g>
    </g>
    <g id="xtick_4">
     <g id="line2d_4">
      <g>
       <use style="stroke:#000000;stroke-width:0.8;" x="619.612648" xlink:href="#mc6fccfcc4f" y="512.64"/>
      </g>
     </g>
     <g id="text_4">
      <!-- 600 -->
      <defs>
       <path d="M 33.015625 40.375 
Q 26.375 40.375 22.484375 35.828125 
Q 18.609375 31.296875 18.609375 23.390625 
Q 18.609375 15.53125 22.484375 10.953125 
Q 26.375 6.390625 33.015625 6.390625 
Q 39.65625 6.390625 43.53125 10.953125 
Q 47.40625 15.53125 47.40625 23.390625 
Q 47.40625 31.296875 43.53125 35.828125 
Q 39.65625 40.375 33.015625 40.375 
z
M 52.59375 71.296875 
L 52.59375 62.3125 
Q 48.875 64.0625 45.09375 64.984375 
Q 41.3125 65.921875 37.59375 65.921875 
Q 27.828125 65.921875 22.671875 59.328125 
Q 17.53125 52.734375 16.796875 39.40625 
Q 19.671875 43.65625 24.015625 45.921875 
Q 28.375 48.1875 33.59375 48.1875 
Q 44.578125 48.1875 50.953125 41.515625 
Q 57.328125 34.859375 57.328125 23.390625 
Q 57.328125 12.15625 50.6875 5.359375 
Q 44.046875 -1.421875 33.015625 -1.421875 
Q 20.359375 -1.421875 13.671875 8.265625 
Q 6.984375 17.96875 6.984375 36.375 
Q 6.984375 53.65625 15.1875 63.9375 
Q 23.390625 74.21875 37.203125 74.21875 
Q 40.921875 74.21875 44.703125 73.484375 
Q 48.484375 72.75 52.59375 71.296875 
z
" id="DejaVuSans-36"/>
      </defs>
      <g transform="translate(610.068898 527.238438)scale(0.1 -0.1)">
       <use xlink:href="#DejaVuSans-36"/>
       <use x="63.623047" xlink:href="#DejaVuSans-30"/>
       <use x="127.246094" xlink:href="#DejaVuSans-30"/>
      </g>
     </g>
    </g>
    <g id="xtick_5">
     <g id="line2d_5">
      <g>
       <use style="stroke:#000000;stroke-width:0.8;" x="751.944664" xlink:href="#mc6fccfcc4f" y="512.64"/>
      </g>
     </g>
     <g id="text_5">
      <!-- 800 -->
      <defs>
       <path d="M 31.78125 34.625 
Q 24.75 34.625 20.71875 30.859375 
Q 16.703125 27.09375 16.703125 20.515625 
Q 16.703125 13.921875 20.71875 10.15625 
Q 24.75 6.390625 31.78125 6.390625 
Q 38.8125 6.390625 42.859375 10.171875 
Q 46.921875 13.96875 46.921875 20.515625 
Q 46.921875 27.09375 42.890625 30.859375 
Q 38.875 34.625 31.78125 34.625 
z
M 21.921875 38.8125 
Q 15.578125 40.375 12.03125 44.71875 
Q 8.5 49.078125 8.5 55.328125 
Q 8.5 64.0625 14.71875 69.140625 
Q 20.953125 74.21875 31.78125 74.21875 
Q 42.671875 74.21875 48.875 69.140625 
Q 55.078125 64.0625 55.078125 55.328125 
Q 55.078125 49.078125 51.53125 44.71875 
Q 48 40.375 41.703125 38.8125 
Q 48.828125 37.15625 52.796875 32.3125 
Q 56.78125 27.484375 56.78125 20.515625 
Q 56.78125 9.90625 50.3125 4.234375 
Q 43.84375 -1.421875 31.78125 -1.421875 
Q 19.734375 -1.421875 13.25 4.234375 
Q 6.78125 9.90625 6.78125 20.515625 
Q 6.78125 27.484375 10.78125 32.3125 
Q 14.796875 37.15625 21.921875 38.8125 
z
M 18.3125 54.390625 
Q 18.3125 48.734375 21.84375 45.5625 
Q 25.390625 42.390625 31.78125 42.390625 
Q 38.140625 42.390625 41.71875 45.5625 
Q 45.3125 48.734375 45.3125 54.390625 
Q 45.3125 60.0625 41.71875 63.234375 
Q 38.140625 66.40625 31.78125 66.40625 
Q 25.390625 66.40625 21.84375 63.234375 
Q 18.3125 60.0625 18.3125 54.390625 
z
" id="DejaVuSans-38"/>
      </defs>
      <g transform="translate(742.400914 527.238438)scale(0.1 -0.1)">
       <use xlink:href="#DejaVuSans-38"/>
       <use x="63.623047" xlink:href="#DejaVuSans-30"/>
       <use x="127.246094" xlink:href="#DejaVuSans-30"/>
      </g>
     </g>
    </g>
   </g>
   <g id="matplotlib.axis_2">
    <g id="ytick_1">
     <g id="line2d_6">
      <defs>
       <path d="M 0 0 
L -3.5 0 
" id="mac2d83f7d2" style="stroke:#000000;stroke-width:0.8;"/>
      </defs>
      <g>
       <use style="stroke:#000000;stroke-width:0.8;" x="216" xlink:href="#mac2d83f7d2" y="505.486452"/>
      </g>
     </g>
     <g id="text_6">
      <!-- 0 -->
      <g transform="translate(202.6375 509.28567)scale(0.1 -0.1)">
       <use xlink:href="#DejaVuSans-30"/>
      </g>
     </g>
    </g>
    <g id="ytick_2">
     <g id="line2d_7">
      <g>
       <use style="stroke:#000000;stroke-width:0.8;" x="216" xlink:href="#mac2d83f7d2" y="433.950968"/>
      </g>
     </g>
     <g id="text_7">
      <!-- 100 -->
      <defs>
       <path d="M 12.40625 8.296875 
L 28.515625 8.296875 
L 28.515625 63.921875 
L 10.984375 60.40625 
L 10.984375 69.390625 
L 28.421875 72.90625 
L 38.28125 72.90625 
L 38.28125 8.296875 
L 54.390625 8.296875 
L 54.390625 0 
L 12.40625 0 
z
" id="DejaVuSans-31"/>
      </defs>
      <g transform="translate(189.9125 437.750186)scale(0.1 -0.1)">
       <use xlink:href="#DejaVuSans-31"/>
       <use x="63.623047" xlink:href="#DejaVuSans-30"/>
       <use x="127.246094" xlink:href="#DejaVuSans-30"/>
      </g>
     </g>
    </g>
    <g id="ytick_3">
     <g id="line2d_8">
      <g>
       <use style="stroke:#000000;stroke-width:0.8;" x="216" xlink:href="#mac2d83f7d2" y="362.415484"/>
      </g>
     </g>
     <g id="text_8">
      <!-- 200 -->
      <g transform="translate(189.9125 366.214703)scale(0.1 -0.1)">
       <use xlink:href="#DejaVuSans-32"/>
       <use x="63.623047" xlink:href="#DejaVuSans-30"/>
       <use x="127.246094" xlink:href="#DejaVuSans-30"/>
      </g>
     </g>
    </g>
    <g id="ytick_4">
     <g id="line2d_9">
      <g>
       <use style="stroke:#000000;stroke-width:0.8;" x="216" xlink:href="#mac2d83f7d2" y="290.88"/>
      </g>
     </g>
     <g id="text_9">
      <!-- 300 -->
      <defs>
       <path d="M 40.578125 39.3125 
Q 47.65625 37.796875 51.625 33 
Q 55.609375 28.21875 55.609375 21.1875 
Q 55.609375 10.40625 48.1875 4.484375 
Q 40.765625 -1.421875 27.09375 -1.421875 
Q 22.515625 -1.421875 17.65625 -0.515625 
Q 12.796875 0.390625 7.625 2.203125 
L 7.625 11.71875 
Q 11.71875 9.328125 16.59375 8.109375 
Q 21.484375 6.890625 26.8125 6.890625 
Q 36.078125 6.890625 40.9375 10.546875 
Q 45.796875 14.203125 45.796875 21.1875 
Q 45.796875 27.640625 41.28125 31.265625 
Q 36.765625 34.90625 28.71875 34.90625 
L 20.21875 34.90625 
L 20.21875 43.015625 
L 29.109375 43.015625 
Q 36.375 43.015625 40.234375 45.921875 
Q 44.09375 48.828125 44.09375 54.296875 
Q 44.09375 59.90625 40.109375 62.90625 
Q 36.140625 65.921875 28.71875 65.921875 
Q 24.65625 65.921875 20.015625 65.03125 
Q 15.375 64.15625 9.8125 62.3125 
L 9.8125 71.09375 
Q 15.4375 72.65625 20.34375 73.4375 
Q 25.25 74.21875 29.59375 74.21875 
Q 40.828125 74.21875 47.359375 69.109375 
Q 53.90625 64.015625 53.90625 55.328125 
Q 53.90625 49.265625 50.4375 45.09375 
Q 46.96875 40.921875 40.578125 39.3125 
z
" id="DejaVuSans-33"/>
      </defs>
      <g transform="translate(189.9125 294.679219)scale(0.1 -0.1)">
       <use xlink:href="#DejaVuSans-33"/>
       <use x="63.623047" xlink:href="#DejaVuSans-30"/>
       <use x="127.246094" xlink:href="#DejaVuSans-30"/>
      </g>
     </g>
    </g>
    <g id="ytick_5">
     <g id="line2d_10">
      <g>
       <use style="stroke:#000000;stroke-width:0.8;" x="216" xlink:href="#mac2d83f7d2" y="219.344516"/>
      </g>
     </g>
     <g id="text_10">
      <!-- 400 -->
      <g transform="translate(189.9125 223.143735)scale(0.1 -0.1)">
       <use xlink:href="#DejaVuSans-34"/>
       <use x="63.623047" xlink:href="#DejaVuSans-30"/>
       <use x="127.246094" xlink:href="#DejaVuSans-30"/>
      </g>
     </g>
    </g>
    <g id="ytick_6">
     <g id="line2d_11">
      <g>
       <use style="stroke:#000000;stroke-width:0.8;" x="216" xlink:href="#mac2d83f7d2" y="147.809032"/>
      </g>
     </g>
     <g id="text_11">
      <!-- 500 -->
      <defs>
       <path d="M 10.796875 72.90625 
L 49.515625 72.90625 
L 49.515625 64.59375 
L 19.828125 64.59375 
L 19.828125 46.734375 
Q 21.96875 47.46875 24.109375 47.828125 
Q 26.265625 48.1875 28.421875 48.1875 
Q 40.625 48.1875 47.75 41.5 
Q 54.890625 34.8125 54.890625 23.390625 
Q 54.890625 11.625 47.5625 5.09375 
Q 40.234375 -1.421875 26.90625 -1.421875 
Q 22.3125 -1.421875 17.546875 -0.640625 
Q 12.796875 0.140625 7.71875 1.703125 
L 7.71875 11.625 
Q 12.109375 9.234375 16.796875 8.0625 
Q 21.484375 6.890625 26.703125 6.890625 
Q 35.15625 6.890625 40.078125 11.328125 
Q 45.015625 15.765625 45.015625 23.390625 
Q 45.015625 31 40.078125 35.4375 
Q 35.15625 39.890625 26.703125 39.890625 
Q 22.75 39.890625 18.8125 39.015625 
Q 14.890625 38.140625 10.796875 36.28125 
z
" id="DejaVuSans-35"/>
      </defs>
      <g transform="translate(189.9125 151.608251)scale(0.1 -0.1)">
       <use xlink:href="#DejaVuSans-35"/>
       <use x="63.623047" xlink:href="#DejaVuSans-30"/>
       <use x="127.246094" xlink:href="#DejaVuSans-30"/>
      </g>
     </g>
    </g>
    <g id="ytick_7">
     <g id="line2d_12">
      <g>
       <use style="stroke:#000000;stroke-width:0.8;" x="216" xlink:href="#mac2d83f7d2" y="76.273548"/>
      </g>
     </g>
     <g id="text_12">
      <!-- 600 -->
      <g transform="translate(189.9125 80.072767)scale(0.1 -0.1)">
       <use xlink:href="#DejaVuSans-36"/>
       <use x="63.623047" xlink:href="#DejaVuSans-30"/>
       <use x="127.246094" xlink:href="#DejaVuSans-30"/>
      </g>
     </g>
    </g>
   </g>
   <g id="line2d_13">
    <defs>
     <path d="M 0 3 
C 0.795609 3 1.55874 2.683901 2.12132 2.12132 
C 2.683901 1.55874 3 0.795609 3 0 
C 3 -0.795609 2.683901 -1.55874 2.12132 -2.12132 
C 1.55874 -2.683901 0.795609 -3 0 -3 
C -0.795609 -3 -1.55874 -2.683901 -2.12132 -2.12132 
C -2.683901 -1.55874 -3 -0.795609 -3 0 
C -3 0.795609 -2.683901 1.55874 -2.12132 2.12132 
C -1.55874 2.683901 -0.795609 3 0 3 
z
" id="mc140a00618" style="stroke:#000000;"/>
    </defs>
    <g clip-path="url(#p9fbf99096b)">
     <use style="stroke:#000000;" x="404.573123" xlink:href="#mc140a00618" y="219.344516"/>
    </g>
   </g>
   <g id="line2d_14">
    <path clip-path="url(#p9fbf99096b)" d="M 569.988142 219.344516 
L 569.655108 208.001864 
L 568.657347 196.704885 
L 566.998877 185.499068 
L 564.686376 174.429534 
L 561.729155 163.540857 
L 558.139123 152.876882 
L 553.930734 142.480549 
L 549.120935 132.393719 
L 543.729092 122.65701 
L 537.776918 113.309627 
L 531.288379 104.389209 
L 524.289603 95.931676 
L 516.80877 87.971083 
L 508.876004 80.539484 
L 500.523248 73.666804 
L 491.784134 67.380717 
L 482.693852 61.706534 
L 473.289005 56.667104 
L 463.607464 52.282718 
L 453.688212 48.571031 
L 443.571192 45.546989 
L 433.297139 43.222768 
L 422.907426 41.607728 
L 412.443886 40.70837 
L 401.948654 40.528317 
L 391.463989 41.068294 
L 381.032111 42.326127 
L 370.695023 44.29675 
L 360.494351 46.972228 
L 350.471169 50.341789 
L 340.665836 54.391864 
L 331.117835 59.106146 
L 321.865613 64.46565 
L 312.946424 70.448798 
L 304.396184 77.031495 
L 296.249321 84.187237 
L 288.53864 91.88721 
L 281.295189 100.100408 
L 274.548134 108.793761 
L 268.324645 117.932262 
L 262.649779 127.479114 
L 257.546389 137.395876 
L 253.035024 147.642617 
L 249.133849 158.178075 
L 245.858573 168.959829 
L 243.222385 179.944465 
L 241.235899 191.08775 
L 239.907115 202.344816 
L 239.241382 213.670333 
L 239.241382 225.018699 
L 239.907115 236.344216 
L 241.235899 247.601282 
L 243.222385 258.744568 
L 245.858573 269.729203 
L 249.133849 280.510957 
L 253.035024 291.046416 
L 257.546389 301.293156 
L 262.649779 311.209918 
L 268.324645 320.75677 
L 274.548134 329.895272 
L 281.295189 338.588624 
L 288.53864 346.801822 
L 296.249321 354.501795 
L 304.396184 361.657537 
L 312.946424 368.240235 
L 321.865613 374.223382 
L 331.117835 379.582887 
L 340.665836 384.297168 
L 350.471169 388.347243 
L 360.494351 391.716804 
L 370.695023 394.392283 
L 381.032111 396.362906 
L 391.463989 397.620738 
L 401.948654 398.160715 
L 412.443886 397.980662 
L 422.907426 397.081305 
L 433.297139 395.466264 
L 443.571192 393.142043 
L 453.688212 390.118001 
L 463.607464 386.406314 
L 473.289005 382.021928 
L 482.693852 376.982498 
L 491.784134 371.308316 
L 500.523248 365.022228 
L 508.876004 358.149548 
L 516.80877 350.717949 
L 524.289603 342.757356 
L 531.288379 334.299823 
L 537.776918 325.379405 
L 543.729092 316.032022 
L 549.120935 306.295313 
L 553.930734 296.208484 
L 558.139123 285.81215 
L 561.729155 275.148175 
L 564.686376 264.259498 
L 566.998877 253.189964 
L 568.657347 241.984147 
L 569.655108 230.687168 
L 569.988142 219.344516 
" style="fill:none;stroke:#ffc0cb;stroke-linecap:square;stroke-width:1.5;"/>
   </g>
   <g id="line2d_15">
    <g clip-path="url(#p9fbf99096b)">
     <use style="stroke:#000000;" x="636.15415" xlink:href="#mc140a00618" y="219.344516"/>
    </g>
   </g>
   <g id="line2d_16">
    <path clip-path="url(#p9fbf99096b)" d="M 801.56917 219.344516 
L 801.236136 208.001864 
L 800.238375 196.704885 
L 798.579905 185.499068 
L 796.267404 174.429534 
L 793.310183 163.540857 
L 789.72015 152.876882 
L 785.511761 142.480549 
L 780.701962 132.393719 
L 775.31012 122.65701 
L 769.357946 113.309627 
L 762.869407 104.389209 
L 755.87063 95.931676 
L 748.389798 87.971083 
L 740.457032 80.539484 
L 732.104275 73.666804 
L 723.365161 67.380717 
L 714.274879 61.706534 
L 704.870033 56.667104 
L 695.188492 52.282718 
L 685.26924 48.571031 
L 675.152219 45.546989 
L 664.878167 43.222768 
L 654.488453 41.607728 
L 644.024914 40.70837 
L 633.529681 40.528317 
L 623.045017 41.068294 
L 612.613138 42.326127 
L 602.276051 44.29675 
L 592.075379 46.972228 
L 582.052197 50.341789 
L 572.246864 54.391864 
L 562.698863 59.106146 
L 553.44664 64.46565 
L 544.527452 70.448798 
L 535.977212 77.031495 
L 527.830349 84.187237 
L 520.119668 91.88721 
L 512.876217 100.100408 
L 506.129162 108.793761 
L 499.905672 117.932262 
L 494.230807 127.479114 
L 489.127417 137.395876 
L 484.616052 147.642617 
L 480.714877 158.178075 
L 477.439601 168.959829 
L 474.803413 179.944465 
L 472.816927 191.08775 
L 471.488142 202.344816 
L 470.82241 213.670333 
L 470.82241 225.018699 
L 471.488142 236.344216 
L 472.816927 247.601282 
L 474.803413 258.744568 
L 477.439601 269.729203 
L 480.714877 280.510957 
L 484.616052 291.046416 
L 489.127417 301.293156 
L 494.230807 311.209918 
L 499.905672 320.75677 
L 506.129162 329.895272 
L 512.876217 338.588624 
L 520.119668 346.801822 
L 527.830349 354.501795 
L 535.977212 361.657537 
L 544.527452 368.240235 
L 553.44664 374.223382 
L 562.698863 379.582887 
L 572.246864 384.297168 
L 582.052197 388.347243 
L 592.075379 391.716804 
L 602.276051 394.392283 
L 612.613138 396.362906 
L 623.045017 397.620738 
L 633.529681 398.160715 
L 644.024914 397.980662 
L 654.488453 397.081305 
L 664.878167 395.466264 
L 675.152219 393.142043 
L 685.26924 390.118001 
L 695.188492 386.406314 
L 704.870033 382.021928 
L 714.274879 376.982498 
L 723.365161 371.308316 
L 732.104275 365.022228 
L 740.457032 358.149548 
L 748.389798 350.717949 
L 755.87063 342.757356 
L 762.869407 334.299823 
L 769.357946 325.379405 
L 775.31012 316.032022 
L 780.701962 306.295313 
L 785.511761 296.208484 
L 789.72015 285.81215 
L 793.310183 275.148175 
L 796.267404 264.259498 
L 798.579905 253.189964 
L 800.238375 241.984147 
L 801.236136 230.687168 
L 801.56917 219.344516 
" style="fill:none;stroke:#ff0000;stroke-linecap:square;stroke-width:1.5;"/>
   </g>
   <g id="line2d_17">
    <g clip-path="url(#p9fbf99096b)">
     <use style="stroke:#000000;" x="520.363636" xlink:href="#mc140a00618" y="362.415484"/>
    </g>
   </g>
   <g id="line2d_18">
    <path clip-path="url(#p9fbf99096b)" d="M 685.778656 362.415484 
L 685.445622 351.072832 
L 684.447861 339.775853 
L 682.789391 328.570036 
L 680.47689 317.500502 
L 677.519669 306.611825 
L 673.929636 295.94785 
L 669.721248 285.551516 
L 664.911448 275.464687 
L 659.519606 265.727978 
L 653.567432 256.380595 
L 647.078893 247.460177 
L 640.080117 239.002644 
L 632.599284 231.042051 
L 624.666518 223.610452 
L 616.313762 216.737772 
L 607.574648 210.451684 
L 598.484366 204.777502 
L 589.079519 199.738072 
L 579.397978 195.353686 
L 569.478726 191.641999 
L 559.361705 188.617957 
L 549.087653 186.293736 
L 538.697939 184.678695 
L 528.2344 183.779338 
L 517.739168 183.599285 
L 507.254503 184.139262 
L 496.822625 185.397094 
L 486.485537 187.367717 
L 476.284865 190.043196 
L 466.261683 193.412757 
L 456.45635 197.462832 
L 446.908349 202.177113 
L 437.656126 207.536618 
L 428.736938 213.519765 
L 420.186698 220.102463 
L 412.039835 227.258205 
L 404.329154 234.958178 
L 397.085703 243.171376 
L 390.338648 251.864728 
L 384.115158 261.00323 
L 378.440293 270.550082 
L 373.336903 280.466844 
L 368.825538 290.713584 
L 364.924363 301.249043 
L 361.649087 312.030797 
L 359.012899 323.015432 
L 357.026413 334.158718 
L 355.697629 345.415784 
L 355.031896 356.741301 
L 355.031896 368.089667 
L 355.697629 379.415184 
L 357.026413 390.67225 
L 359.012899 401.815535 
L 361.649087 412.800171 
L 364.924363 423.581925 
L 368.825538 434.117383 
L 373.336903 444.364124 
L 378.440293 454.280886 
L 384.115158 463.827738 
L 390.338648 472.966239 
L 397.085703 481.659592 
L 404.329154 489.87279 
L 412.039835 497.572763 
L 420.186698 504.728505 
L 428.736938 511.311202 
L 437.656126 517.29435 
L 446.908349 522.653854 
L 456.45635 527.368136 
L 466.261683 531.418211 
L 476.284865 534.787772 
L 486.485537 537.46325 
L 496.822625 539.433873 
L 507.254503 540.691706 
L 517.739168 541.231683 
L 528.2344 541.05163 
L 538.697939 540.152272 
L 549.087653 538.537232 
L 559.361705 536.213011 
L 569.478726 533.188969 
L 579.397978 529.477282 
L 589.079519 525.092896 
L 598.484366 520.053466 
L 607.574648 514.379283 
L 616.313762 508.093196 
L 624.666518 501.220516 
L 632.599284 493.788917 
L 640.080117 485.828324 
L 647.078893 477.370791 
L 653.567432 468.450373 
L 659.519606 459.10299 
L 664.911448 449.366281 
L 669.721248 439.279451 
L 673.929636 428.883118 
L 677.519669 418.219143 
L 680.47689 407.330466 
L 682.789391 396.260932 
L 684.447861 385.055115 
L 685.445622 373.758136 
L 685.778656 362.415484 
" style="fill:none;stroke:#008000;stroke-linecap:square;stroke-width:1.5;"/>
   </g>
   <g id="line2d_19">
    <g clip-path="url(#p9fbf99096b)">
     <use style="stroke:#000000;" x="288.782609" xlink:href="#mc140a00618" y="362.415484"/>
    </g>
   </g>
   <g id="line2d_20">
    <path clip-path="url(#p9fbf99096b)" d="M 454.197628 362.415484 
L 453.864595 351.072832 
L 452.866834 339.775853 
L 451.208364 328.570036 
L 448.895862 317.500502 
L 445.938641 306.611825 
L 442.348609 295.94785 
L 438.14022 285.551516 
L 433.330421 275.464687 
L 427.938578 265.727978 
L 421.986404 256.380595 
L 415.497865 247.460177 
L 408.499089 239.002644 
L 401.018256 231.042051 
L 393.085491 223.610452 
L 384.732734 216.737772 
L 375.99362 210.451684 
L 366.903338 204.777502 
L 357.498491 199.738072 
L 347.81695 195.353686 
L 337.897698 191.641999 
L 327.780678 188.617957 
L 317.506625 186.293736 
L 307.116912 184.678695 
L 296.653372 183.779338 
L 286.15814 183.599285 
L 275.673476 184.139262 
L 265.241597 185.397094 
L 254.90451 187.367717 
L 244.703838 190.043196 
L 234.680655 193.412757 
L 224.875322 197.462832 
L 215.327321 202.177113 
L 206.075099 207.536618 
L 197.15591 213.519765 
L 188.60567 220.102463 
L 180.458807 227.258205 
L 172.748126 234.958178 
L 165.504675 243.171376 
L 158.75762 251.864728 
L 152.534131 261.00323 
L 146.859265 270.550082 
L 141.755875 280.466844 
L 137.24451 290.713584 
L 133.343335 301.249043 
L 130.06806 312.030797 
L 127.431871 323.015432 
L 125.445385 334.158718 
L 124.116601 345.415784 
L 123.450868 356.741301 
L 123.450868 368.089667 
L 124.116601 379.415184 
L 125.445385 390.67225 
L 127.431871 401.815535 
L 130.06806 412.800171 
L 133.343335 423.581925 
L 137.24451 434.117383 
L 141.755875 444.364124 
L 146.859265 454.280886 
L 152.534131 463.827738 
L 158.75762 472.966239 
L 165.504675 481.659592 
L 172.748126 489.87279 
L 180.458807 497.572763 
L 188.60567 504.728505 
L 197.15591 511.311202 
L 206.075099 517.29435 
L 215.327321 522.653854 
L 224.875322 527.368136 
L 234.680655 531.418211 
L 244.703838 534.787772 
L 254.90451 537.46325 
L 265.241597 539.433873 
L 275.673476 540.691706 
L 286.15814 541.231683 
L 296.653372 541.05163 
L 307.116912 540.152272 
L 317.506625 538.537232 
L 327.780678 536.213011 
L 337.897698 533.188969 
L 347.81695 529.477282 
L 357.498491 525.092896 
L 366.903338 520.053466 
L 375.99362 514.379283 
L 384.732734 508.093196 
L 393.085491 501.220516 
L 401.018256 493.788917 
L 408.499089 485.828324 
L 415.497865 477.370791 
L 421.986404 468.450373 
L 427.938578 459.10299 
L 433.330421 449.366281 
L 438.14022 439.279451 
L 442.348609 428.883118 
L 445.938641 418.219143 
L 448.895862 407.330466 
L 451.208364 396.260932 
L 452.866834 385.055115 
L 453.864595 373.758136 
L 454.197628 362.415484 
" style="fill:none;stroke:#ffa500;stroke-linecap:square;stroke-width:1.5;"/>
   </g>
   <g id="line2d_21">
    <g clip-path="url(#p9fbf99096b)">
     <use style="stroke:#000000;" x="751.944664" xlink:href="#mc140a00618" y="362.415484"/>
    </g>
   </g>
   <g id="line2d_22">
    <path clip-path="url(#p9fbf99096b)" d="M 917.359684 362.415484 
L 917.02665 351.072832 
L 916.028889 339.775853 
L 914.370419 328.570036 
L 912.057918 317.500502 
L 909.100697 306.611825 
L 905.510664 295.94785 
L 901.302275 285.551516 
L 896.492476 275.464687 
L 891.100634 265.727978 
L 885.14846 256.380595 
L 878.659921 247.460177 
L 871.661144 239.002644 
L 864.180312 231.042051 
L 856.247546 223.610452 
L 847.894789 216.737772 
L 839.155675 210.451684 
L 830.065393 204.777502 
L 820.660547 199.738072 
L 810.979005 195.353686 
L 801.059754 191.641999 
L 790.942733 188.617957 
L 780.668681 186.293736 
L 770.278967 184.678695 
L 759.815428 183.779338 
L 749.320195 183.599285 
L 738.835531 184.139262 
L 728.403652 185.397094 
L 718.066565 187.367717 
L 707.865893 190.043196 
L 697.84271 193.412757 
L 688.037377 197.462832 
L 678.489377 202.177113 
L 669.237154 207.536618 
L 660.317966 213.519765 
L 651.767726 220.102463 
L 643.620863 227.258205 
L 635.910182 234.958178 
L 628.66673 243.171376 
L 621.919676 251.864728 
L 615.696186 261.00323 
L 610.021321 270.550082 
L 604.917931 280.466844 
L 600.406565 290.713584 
L 596.505391 301.249043 
L 593.230115 312.030797 
L 590.593927 323.015432 
L 588.607441 334.158718 
L 587.278656 345.415784 
L 586.612924 356.741301 
L 586.612924 368.089667 
L 587.278656 379.415184 
L 588.607441 390.67225 
L 590.593927 401.815535 
L 593.230115 412.800171 
L 596.505391 423.581925 
L 600.406565 434.117383 
L 604.917931 444.364124 
L 610.021321 454.280886 
L 615.696186 463.827738 
L 621.919676 472.966239 
L 628.66673 481.659592 
L 635.910182 489.87279 
L 643.620863 497.572763 
L 651.767726 504.728505 
L 660.317966 511.311202 
L 669.237154 517.29435 
L 678.489377 522.653854 
L 688.037377 527.368136 
L 697.84271 531.418211 
L 707.865893 534.787772 
L 718.066565 537.46325 
L 728.403652 539.433873 
L 738.835531 540.691706 
L 749.320195 541.231683 
L 759.815428 541.05163 
L 770.278967 540.152272 
L 780.668681 538.537232 
L 790.942733 536.213011 
L 801.059754 533.188969 
L 810.979005 529.477282 
L 820.660547 525.092896 
L 830.065393 520.053466 
L 839.155675 514.379283 
L 847.894789 508.093196 
L 856.247546 501.220516 
L 864.180312 493.788917 
L 871.661144 485.828324 
L 878.659921 477.370791 
L 885.14846 468.450373 
L 891.100634 459.10299 
L 896.492476 449.366281 
L 901.302275 439.279451 
L 905.510664 428.883118 
L 909.100697 418.219143 
L 912.057918 407.330466 
L 914.370419 396.260932 
L 916.028889 385.055115 
L 917.02665 373.758136 
L 917.359684 362.415484 
" style="fill:none;stroke:#0000ff;stroke-linecap:square;stroke-width:1.5;"/>
   </g>
   <g id="patch_3">
    <path d="M 216 512.64 
L 216 69.12 
" style="fill:none;stroke:#000000;stroke-linecap:square;stroke-linejoin:miter;stroke-width:0.8;"/>
   </g>
   <g id="patch_4">
    <path d="M 824.727273 512.64 
L 824.727273 69.12 
" style="fill:none;stroke:#000000;stroke-linecap:square;stroke-linejoin:miter;stroke-width:0.8;"/>
   </g>
   <g id="patch_5">
    <path d="M 216 512.64 
L 824.727273 512.64 
" style="fill:none;stroke:#000000;stroke-linecap:square;stroke-linejoin:miter;stroke-width:0.8;"/>
   </g>
   <g id="patch_6">
    <path d="M 216 69.12 
L 824.727273 69.12 
" style="fill:none;stroke:#000000;stroke-linecap:square;stroke-linejoin:miter;stroke-width:0.8;"/>
   </g>
   <g id="legend_1">
    <g id="patch_7">
     <path d="M 223 507.64 
L 274.232813 507.64 
Q 276.232813 507.64 276.232813 505.64 
L 276.232813 433.249375 
Q 276.232813 431.249375 274.232813 431.249375 
L 223 431.249375 
Q 221 431.249375 221 433.249375 
L 221 505.64 
Q 221 507.64 223 507.64 
z
" style="fill:#ffffff;opacity:0.8;stroke:#cccccc;stroke-linejoin:miter;"/>
    </g>
    <g id="line2d_23">
     <path d="M 225 439.347813 
L 245 439.347813 
" style="fill:none;stroke:#ffc0cb;stroke-linecap:square;stroke-width:1.5;"/>
    </g>
    <g id="line2d_24"/>
    <g id="text_13">
     <!-- AP1 -->
     <defs>
      <path d="M 34.1875 63.1875 
L 20.796875 26.90625 
L 47.609375 26.90625 
z
M 28.609375 72.90625 
L 39.796875 72.90625 
L 67.578125 0 
L 57.328125 0 
L 50.6875 18.703125 
L 17.828125 18.703125 
L 11.1875 0 
L 0.78125 0 
z
" id="DejaVuSans-41"/>
      <path d="M 19.671875 64.796875 
L 19.671875 37.40625 
L 32.078125 37.40625 
Q 38.96875 37.40625 42.71875 40.96875 
Q 46.484375 44.53125 46.484375 51.125 
Q 46.484375 57.671875 42.71875 61.234375 
Q 38.96875 64.796875 32.078125 64.796875 
z
M 9.8125 72.90625 
L 32.078125 72.90625 
Q 44.34375 72.90625 50.609375 67.359375 
Q 56.890625 61.8125 56.890625 51.125 
Q 56.890625 40.328125 50.609375 34.8125 
Q 44.34375 29.296875 32.078125 29.296875 
L 19.671875 29.296875 
L 19.671875 0 
L 9.8125 0 
z
" id="DejaVuSans-50"/>
     </defs>
     <g transform="translate(253 442.847813)scale(0.1 -0.1)">
      <use xlink:href="#DejaVuSans-41"/>
      <use x="68.408203" xlink:href="#DejaVuSans-50"/>
      <use x="128.710938" xlink:href="#DejaVuSans-31"/>
     </g>
    </g>
    <g id="line2d_25">
     <path d="M 225 454.025938 
L 245 454.025938 
" style="fill:none;stroke:#ff0000;stroke-linecap:square;stroke-width:1.5;"/>
    </g>
    <g id="line2d_26"/>
    <g id="text_14">
     <!-- AP2 -->
     <g transform="translate(253 457.525938)scale(0.1 -0.1)">
      <use xlink:href="#DejaVuSans-41"/>
      <use x="68.408203" xlink:href="#DejaVuSans-50"/>
      <use x="128.710938" xlink:href="#DejaVuSans-32"/>
     </g>
    </g>
    <g id="line2d_27">
     <path d="M 225 468.704063 
L 245 468.704063 
" style="fill:none;stroke:#008000;stroke-linecap:square;stroke-width:1.5;"/>
    </g>
    <g id="line2d_28"/>
    <g id="text_15">
     <!-- AP3 -->
     <g transform="translate(253 472.204063)scale(0.1 -0.1)">
      <use xlink:href="#DejaVuSans-41"/>
      <use x="68.408203" xlink:href="#DejaVuSans-50"/>
      <use x="128.710938" xlink:href="#DejaVuSans-33"/>
     </g>
    </g>
    <g id="line2d_29">
     <path d="M 225 483.382188 
L 245 483.382188 
" style="fill:none;stroke:#ffa500;stroke-linecap:square;stroke-width:1.5;"/>
    </g>
    <g id="line2d_30"/>
    <g id="text_16">
     <!-- AP4 -->
     <g transform="translate(253 486.882188)scale(0.1 -0.1)">
      <use xlink:href="#DejaVuSans-41"/>
      <use x="68.408203" xlink:href="#DejaVuSans-50"/>
      <use x="128.710938" xlink:href="#DejaVuSans-34"/>
     </g>
    </g>
    <g id="line2d_31">
     <path d="M 225 498.060313 
L 245 498.060313 
" style="fill:none;stroke:#0000ff;stroke-linecap:square;stroke-width:1.5;"/>
    </g>
    <g id="line2d_32"/>
    <g id="text_17">
     <!-- AP5 -->
     <g transform="translate(253 501.560313)scale(0.1 -0.1)">
      <use xlink:href="#DejaVuSans-41"/>
      <use x="68.408203" xlink:href="#DejaVuSans-50"/>
      <use x="128.710938" xlink:href="#DejaVuSans-35"/>
     </g>
    </g>
   </g>
  </g>
  <g id="axes_2">
   <g id="patch_8">
    <path d="M 946.472727 512.64 
L 1555.2 512.64 
L 1555.2 69.12 
L 946.472727 69.12 
z
" style="fill:#808080;"/>
   </g>
   <g id="matplotlib.axis_3">
    <g id="xtick_6">
     <g id="line2d_33">
      <g>
       <use style="stroke:#000000;stroke-width:0.8;" x="953.089328" xlink:href="#mc6fccfcc4f" y="512.64"/>
      </g>
     </g>
     <g id="text_18">
      <!-- 0 -->
      <g transform="translate(949.908078 527.238438)scale(0.1 -0.1)">
       <use xlink:href="#DejaVuSans-30"/>
      </g>
     </g>
    </g>
    <g id="xtick_7">
     <g id="line2d_34">
      <g>
       <use style="stroke:#000000;stroke-width:0.8;" x="1085.421344" xlink:href="#mc6fccfcc4f" y="512.64"/>
      </g>
     </g>
     <g id="text_19">
      <!-- 200 -->
      <g transform="translate(1075.877594 527.238438)scale(0.1 -0.1)">
       <use xlink:href="#DejaVuSans-32"/>
       <use x="63.623047" xlink:href="#DejaVuSans-30"/>
       <use x="127.246094" xlink:href="#DejaVuSans-30"/>
      </g>
     </g>
    </g>
    <g id="xtick_8">
     <g id="line2d_35">
      <g>
       <use style="stroke:#000000;stroke-width:0.8;" x="1217.75336" xlink:href="#mc6fccfcc4f" y="512.64"/>
      </g>
     </g>
     <g id="text_20">
      <!-- 400 -->
      <g transform="translate(1208.20961 527.238438)scale(0.1 -0.1)">
       <use xlink:href="#DejaVuSans-34"/>
       <use x="63.623047" xlink:href="#DejaVuSans-30"/>
       <use x="127.246094" xlink:href="#DejaVuSans-30"/>
      </g>
     </g>
    </g>
    <g id="xtick_9">
     <g id="line2d_36">
      <g>
       <use style="stroke:#000000;stroke-width:0.8;" x="1350.085375" xlink:href="#mc6fccfcc4f" y="512.64"/>
      </g>
     </g>
     <g id="text_21">
      <!-- 600 -->
      <g transform="translate(1340.541625 527.238438)scale(0.1 -0.1)">
       <use xlink:href="#DejaVuSans-36"/>
       <use x="63.623047" xlink:href="#DejaVuSans-30"/>
       <use x="127.246094" xlink:href="#DejaVuSans-30"/>
      </g>
     </g>
    </g>
    <g id="xtick_10">
     <g id="line2d_37">
      <g>
       <use style="stroke:#000000;stroke-width:0.8;" x="1482.417391" xlink:href="#mc6fccfcc4f" y="512.64"/>
      </g>
     </g>
     <g id="text_22">
      <!-- 800 -->
      <g transform="translate(1472.873641 527.238438)scale(0.1 -0.1)">
       <use xlink:href="#DejaVuSans-38"/>
       <use x="63.623047" xlink:href="#DejaVuSans-30"/>
       <use x="127.246094" xlink:href="#DejaVuSans-30"/>
      </g>
     </g>
    </g>
   </g>
   <g id="matplotlib.axis_4">
    <g id="ytick_8">
     <g id="line2d_38">
      <g>
       <use style="stroke:#000000;stroke-width:0.8;" x="946.472727" xlink:href="#mac2d83f7d2" y="505.486452"/>
      </g>
     </g>
     <g id="text_23">
      <!-- 0 -->
      <g transform="translate(933.110227 509.28567)scale(0.1 -0.1)">
       <use xlink:href="#DejaVuSans-30"/>
      </g>
     </g>
    </g>
    <g id="ytick_9">
     <g id="line2d_39">
      <g>
       <use style="stroke:#000000;stroke-width:0.8;" x="946.472727" xlink:href="#mac2d83f7d2" y="433.950968"/>
      </g>
     </g>
     <g id="text_24">
      <!-- 100 -->
      <g transform="translate(920.385227 437.750186)scale(0.1 -0.1)">
       <use xlink:href="#DejaVuSans-31"/>
       <use x="63.623047" xlink:href="#DejaVuSans-30"/>
       <use x="127.246094" xlink:href="#DejaVuSans-30"/>
      </g>
     </g>
    </g>
    <g id="ytick_10">
     <g id="line2d_40">
      <g>
       <use style="stroke:#000000;stroke-width:0.8;" x="946.472727" xlink:href="#mac2d83f7d2" y="362.415484"/>
      </g>
     </g>
     <g id="text_25">
      <!-- 200 -->
      <g transform="translate(920.385227 366.214703)scale(0.1 -0.1)">
       <use xlink:href="#DejaVuSans-32"/>
       <use x="63.623047" xlink:href="#DejaVuSans-30"/>
       <use x="127.246094" xlink:href="#DejaVuSans-30"/>
      </g>
     </g>
    </g>
    <g id="ytick_11">
     <g id="line2d_41">
      <g>
       <use style="stroke:#000000;stroke-width:0.8;" x="946.472727" xlink:href="#mac2d83f7d2" y="290.88"/>
      </g>
     </g>
     <g id="text_26">
      <!-- 300 -->
      <g transform="translate(920.385227 294.679219)scale(0.1 -0.1)">
       <use xlink:href="#DejaVuSans-33"/>
       <use x="63.623047" xlink:href="#DejaVuSans-30"/>
       <use x="127.246094" xlink:href="#DejaVuSans-30"/>
      </g>
     </g>
    </g>
    <g id="ytick_12">
     <g id="line2d_42">
      <g>
       <use style="stroke:#000000;stroke-width:0.8;" x="946.472727" xlink:href="#mac2d83f7d2" y="219.344516"/>
      </g>
     </g>
     <g id="text_27">
      <!-- 400 -->
      <g transform="translate(920.385227 223.143735)scale(0.1 -0.1)">
       <use xlink:href="#DejaVuSans-34"/>
       <use x="63.623047" xlink:href="#DejaVuSans-30"/>
       <use x="127.246094" xlink:href="#DejaVuSans-30"/>
      </g>
     </g>
    </g>
    <g id="ytick_13">
     <g id="line2d_43">
      <g>
       <use style="stroke:#000000;stroke-width:0.8;" x="946.472727" xlink:href="#mac2d83f7d2" y="147.809032"/>
      </g>
     </g>
     <g id="text_28">
      <!-- 500 -->
      <g transform="translate(920.385227 151.608251)scale(0.1 -0.1)">
       <use xlink:href="#DejaVuSans-35"/>
       <use x="63.623047" xlink:href="#DejaVuSans-30"/>
       <use x="127.246094" xlink:href="#DejaVuSans-30"/>
      </g>
     </g>
    </g>
    <g id="ytick_14">
     <g id="line2d_44">
      <g>
       <use style="stroke:#000000;stroke-width:0.8;" x="946.472727" xlink:href="#mac2d83f7d2" y="76.273548"/>
      </g>
     </g>
     <g id="text_29">
      <!-- 600 -->
      <g transform="translate(920.385227 80.072767)scale(0.1 -0.1)">
       <use xlink:href="#DejaVuSans-36"/>
       <use x="63.623047" xlink:href="#DejaVuSans-30"/>
       <use x="127.246094" xlink:href="#DejaVuSans-30"/>
      </g>
     </g>
    </g>
   </g>
   <g id="line2d_45">
    <g clip-path="url(#p3dc651f107)">
     <use style="stroke:#000000;" x="1135.04585" xlink:href="#mc140a00618" y="219.344516"/>
    </g>
   </g>
   <g id="line2d_46">
    <path clip-path="url(#p3dc651f107)" d="M 1300.46087 219.344516 
L 1300.127836 208.001864 
L 1299.130075 196.704885 
L 1297.471605 185.499068 
L 1295.159103 174.429534 
L 1292.201883 163.540857 
L 1288.61185 152.876882 
L 1284.403461 142.480549 
L 1279.593662 132.393719 
L 1274.20182 122.65701 
L 1268.249645 113.309627 
L 1261.761107 104.389209 
L 1254.76233 95.931676 
L 1247.281498 87.971083 
L 1239.348732 80.539484 
L 1230.995975 73.666804 
L 1222.256861 67.380717 
L 1213.166579 61.706534 
L 1203.761732 56.667104 
L 1194.080191 52.282718 
L 1184.16094 48.571031 
L 1174.043919 45.546989 
L 1163.769867 43.222768 
L 1153.380153 41.607728 
L 1142.916613 40.70837 
L 1132.421381 40.528317 
L 1121.936717 41.068294 
L 1111.504838 42.326127 
L 1101.167751 44.29675 
L 1090.967079 46.972228 
L 1080.943896 50.341789 
L 1071.138563 54.391864 
L 1061.590562 59.106146 
L 1052.33834 64.46565 
L 1043.419151 70.448798 
L 1034.868911 77.031495 
L 1026.722049 84.187237 
L 1019.011367 91.88721 
L 1011.767916 100.100408 
L 1005.020862 108.793761 
L 998.797372 117.932262 
L 993.122507 127.479114 
L 988.019116 137.395876 
L 983.507751 147.642617 
L 979.606576 158.178075 
L 976.331301 168.959829 
L 973.695112 179.944465 
L 971.708627 191.08775 
L 970.379842 202.344816 
L 969.714109 213.670333 
L 969.714109 225.018699 
L 970.379842 236.344216 
L 971.708627 247.601282 
L 973.695112 258.744568 
L 976.331301 269.729203 
L 979.606576 280.510957 
L 983.507751 291.046416 
L 988.019116 301.293156 
L 993.122507 311.209918 
L 998.797372 320.75677 
L 1005.020862 329.895272 
L 1011.767916 338.588624 
L 1019.011367 346.801822 
L 1026.722049 354.501795 
L 1034.868911 361.657537 
L 1043.419151 368.240235 
L 1052.33834 374.223382 
L 1061.590562 379.582887 
L 1071.138563 384.297168 
L 1080.943896 388.347243 
L 1090.967079 391.716804 
L 1101.167751 394.392283 
L 1111.504838 396.362906 
L 1121.936717 397.620738 
L 1132.421381 398.160715 
L 1142.916613 397.980662 
L 1153.380153 397.081305 
L 1163.769867 395.466264 
L 1174.043919 393.142043 
L 1184.16094 390.118001 
L 1194.080191 386.406314 
L 1203.761732 382.021928 
L 1213.166579 376.982498 
L 1222.256861 371.308316 
L 1230.995975 365.022228 
L 1239.348732 358.149548 
L 1247.281498 350.717949 
L 1254.76233 342.757356 
L 1261.761107 334.299823 
L 1268.249645 325.379405 
L 1274.20182 316.032022 
L 1279.593662 306.295313 
L 1284.403461 296.208484 
L 1288.61185 285.81215 
L 1292.201883 275.148175 
L 1295.159103 264.259498 
L 1297.471605 253.189964 
L 1299.130075 241.984147 
L 1300.127836 230.687168 
L 1300.46087 219.344516 
" style="fill:none;stroke:#ffc0cb;stroke-linecap:square;stroke-width:1.5;"/>
   </g>
   <g id="line2d_47">
    <g clip-path="url(#p3dc651f107)">
     <use style="stroke:#000000;" x="1366.626877" xlink:href="#mc140a00618" y="219.344516"/>
    </g>
   </g>
   <g id="line2d_48">
    <path clip-path="url(#p3dc651f107)" d="M 1532.041897 219.344516 
L 1531.708863 208.001864 
L 1530.711102 196.704885 
L 1529.052632 185.499068 
L 1526.740131 174.429534 
L 1523.78291 163.540857 
L 1520.192877 152.876882 
L 1515.984489 142.480549 
L 1511.174689 132.393719 
L 1505.782847 122.65701 
L 1499.830673 113.309627 
L 1493.342134 104.389209 
L 1486.343358 95.931676 
L 1478.862525 87.971083 
L 1470.929759 80.539484 
L 1462.577003 73.666804 
L 1453.837889 67.380717 
L 1444.747607 61.706534 
L 1435.34276 56.667104 
L 1425.661219 52.282718 
L 1415.741967 48.571031 
L 1405.624946 45.546989 
L 1395.350894 43.222768 
L 1384.96118 41.607728 
L 1374.497641 40.70837 
L 1364.002409 40.528317 
L 1353.517744 41.068294 
L 1343.085866 42.326127 
L 1332.748778 44.29675 
L 1322.548106 46.972228 
L 1312.524924 50.341789 
L 1302.719591 54.391864 
L 1293.17159 59.106146 
L 1283.919368 64.46565 
L 1275.000179 70.448798 
L 1266.449939 77.031495 
L 1258.303076 84.187237 
L 1250.592395 91.88721 
L 1243.348944 100.100408 
L 1236.601889 108.793761 
L 1230.378399 117.932262 
L 1224.703534 127.479114 
L 1219.600144 137.395876 
L 1215.088779 147.642617 
L 1211.187604 158.178075 
L 1207.912328 168.959829 
L 1205.27614 179.944465 
L 1203.289654 191.08775 
L 1201.96087 202.344816 
L 1201.295137 213.670333 
L 1201.295137 225.018699 
L 1201.96087 236.344216 
L 1203.289654 247.601282 
L 1205.27614 258.744568 
L 1207.912328 269.729203 
L 1211.187604 280.510957 
L 1215.088779 291.046416 
L 1219.600144 301.293156 
L 1224.703534 311.209918 
L 1230.378399 320.75677 
L 1236.601889 329.895272 
L 1243.348944 338.588624 
L 1250.592395 346.801822 
L 1258.303076 354.501795 
L 1266.449939 361.657537 
L 1275.000179 368.240235 
L 1283.919368 374.223382 
L 1293.17159 379.582887 
L 1302.719591 384.297168 
L 1312.524924 388.347243 
L 1322.548106 391.716804 
L 1332.748778 394.392283 
L 1343.085866 396.362906 
L 1353.517744 397.620738 
L 1364.002409 398.160715 
L 1374.497641 397.980662 
L 1384.96118 397.081305 
L 1395.350894 395.466264 
L 1405.624946 393.142043 
L 1415.741967 390.118001 
L 1425.661219 386.406314 
L 1435.34276 382.021928 
L 1444.747607 376.982498 
L 1453.837889 371.308316 
L 1462.577003 365.022228 
L 1470.929759 358.149548 
L 1478.862525 350.717949 
L 1486.343358 342.757356 
L 1493.342134 334.299823 
L 1499.830673 325.379405 
L 1505.782847 316.032022 
L 1511.174689 306.295313 
L 1515.984489 296.208484 
L 1520.192877 285.81215 
L 1523.78291 275.148175 
L 1526.740131 264.259498 
L 1529.052632 253.189964 
L 1530.711102 241.984147 
L 1531.708863 230.687168 
L 1532.041897 219.344516 
" style="fill:none;stroke:#ff0000;stroke-linecap:square;stroke-width:1.5;"/>
   </g>
   <g id="line2d_49">
    <g clip-path="url(#p3dc651f107)">
     <use style="stroke:#000000;" x="1250.836364" xlink:href="#mc140a00618" y="362.415484"/>
    </g>
   </g>
   <g id="line2d_50">
    <path clip-path="url(#p3dc651f107)" d="M 1416.251383 362.415484 
L 1415.918349 351.072832 
L 1414.920589 339.775853 
L 1413.262118 328.570036 
L 1410.949617 317.500502 
L 1407.992396 306.611825 
L 1404.402364 295.94785 
L 1400.193975 285.551516 
L 1395.384176 275.464687 
L 1389.992333 265.727978 
L 1384.040159 256.380595 
L 1377.55162 247.460177 
L 1370.552844 239.002644 
L 1363.072011 231.042051 
L 1355.139246 223.610452 
L 1346.786489 216.737772 
L 1338.047375 210.451684 
L 1328.957093 204.777502 
L 1319.552246 199.738072 
L 1309.870705 195.353686 
L 1299.951453 191.641999 
L 1289.834433 188.617957 
L 1279.56038 186.293736 
L 1269.170667 184.678695 
L 1258.707127 183.779338 
L 1248.211895 183.599285 
L 1237.72723 184.139262 
L 1227.295352 185.397094 
L 1216.958265 187.367717 
L 1206.757592 190.043196 
L 1196.73441 193.412757 
L 1186.929077 197.462832 
L 1177.381076 202.177113 
L 1168.128854 207.536618 
L 1159.209665 213.519765 
L 1150.659425 220.102463 
L 1142.512562 227.258205 
L 1134.801881 234.958178 
L 1127.55843 243.171376 
L 1120.811375 251.864728 
L 1114.587886 261.00323 
L 1108.91302 270.550082 
L 1103.80963 280.466844 
L 1099.298265 290.713584 
L 1095.39709 301.249043 
L 1092.121814 312.030797 
L 1089.485626 323.015432 
L 1087.49914 334.158718 
L 1086.170356 345.415784 
L 1085.504623 356.741301 
L 1085.504623 368.089667 
L 1086.170356 379.415184 
L 1087.49914 390.67225 
L 1089.485626 401.815535 
L 1092.121814 412.800171 
L 1095.39709 423.581925 
L 1099.298265 434.117383 
L 1103.80963 444.364124 
L 1108.91302 454.280886 
L 1114.587886 463.827738 
L 1120.811375 472.966239 
L 1127.55843 481.659592 
L 1134.801881 489.87279 
L 1142.512562 497.572763 
L 1150.659425 504.728505 
L 1159.209665 511.311202 
L 1168.128854 517.29435 
L 1177.381076 522.653854 
L 1186.929077 527.368136 
L 1196.73441 531.418211 
L 1206.757592 534.787772 
L 1216.958265 537.46325 
L 1227.295352 539.433873 
L 1237.72723 540.691706 
L 1248.211895 541.231683 
L 1258.707127 541.05163 
L 1269.170667 540.152272 
L 1279.56038 538.537232 
L 1289.834433 536.213011 
L 1299.951453 533.188969 
L 1309.870705 529.477282 
L 1319.552246 525.092896 
L 1328.957093 520.053466 
L 1338.047375 514.379283 
L 1346.786489 508.093196 
L 1355.139246 501.220516 
L 1363.072011 493.788917 
L 1370.552844 485.828324 
L 1377.55162 477.370791 
L 1384.040159 468.450373 
L 1389.992333 459.10299 
L 1395.384176 449.366281 
L 1400.193975 439.279451 
L 1404.402364 428.883118 
L 1407.992396 418.219143 
L 1410.949617 407.330466 
L 1413.262118 396.260932 
L 1414.920589 385.055115 
L 1415.918349 373.758136 
L 1416.251383 362.415484 
" style="fill:none;stroke:#008000;stroke-linecap:square;stroke-width:1.5;"/>
   </g>
   <g id="line2d_51">
    <g clip-path="url(#p3dc651f107)">
     <use style="stroke:#000000;" x="1019.255336" xlink:href="#mc140a00618" y="362.415484"/>
    </g>
   </g>
   <g id="line2d_52">
    <path clip-path="url(#p3dc651f107)" d="M 1184.670356 362.415484 
L 1184.337322 351.072832 
L 1183.339561 339.775853 
L 1181.681091 328.570036 
L 1179.36859 317.500502 
L 1176.411369 306.611825 
L 1172.821336 295.94785 
L 1168.612947 285.551516 
L 1163.803148 275.464687 
L 1158.411306 265.727978 
L 1152.459132 256.380595 
L 1145.970593 247.460177 
L 1138.971816 239.002644 
L 1131.490984 231.042051 
L 1123.558218 223.610452 
L 1115.205461 216.737772 
L 1106.466347 210.451684 
L 1097.376065 204.777502 
L 1087.971219 199.738072 
L 1078.289677 195.353686 
L 1068.370426 191.641999 
L 1058.253405 188.617957 
L 1047.979353 186.293736 
L 1037.589639 184.678695 
L 1027.1261 183.779338 
L 1016.630867 183.599285 
L 1006.146203 184.139262 
L 995.714324 185.397094 
L 985.377237 187.367717 
L 975.176565 190.043196 
L 965.153382 193.412757 
L 955.348049 197.462832 
L 945.800048 202.177113 
L 936.547826 207.536618 
L 927.628638 213.519765 
L 919.078398 220.102463 
L 910.931535 227.258205 
L 903.220854 234.958178 
L 895.977402 243.171376 
L 889.230348 251.864728 
L 883.006858 261.00323 
L 877.331993 270.550082 
L 872.228603 280.466844 
L 867.717237 290.713584 
L 863.816063 301.249043 
L 860.540787 312.030797 
L 857.904598 323.015432 
L 855.918113 334.158718 
L 854.589328 345.415784 
L 853.923596 356.741301 
L 853.923596 368.089667 
L 854.589328 379.415184 
L 855.918113 390.67225 
L 857.904598 401.815535 
L 860.540787 412.800171 
L 863.816063 423.581925 
L 867.717237 434.117383 
L 872.228603 444.364124 
L 877.331993 454.280886 
L 883.006858 463.827738 
L 889.230348 472.966239 
L 895.977402 481.659592 
L 903.220854 489.87279 
L 910.931535 497.572763 
L 919.078398 504.728505 
L 927.628638 511.311202 
L 936.547826 517.29435 
L 945.800048 522.653854 
L 955.348049 527.368136 
L 965.153382 531.418211 
L 975.176565 534.787772 
L 985.377237 537.46325 
L 995.714324 539.433873 
L 1006.146203 540.691706 
L 1016.630867 541.231683 
L 1027.1261 541.05163 
L 1037.589639 540.152272 
L 1047.979353 538.537232 
L 1058.253405 536.213011 
L 1068.370426 533.188969 
L 1078.289677 529.477282 
L 1087.971219 525.092896 
L 1097.376065 520.053466 
L 1106.466347 514.379283 
L 1115.205461 508.093196 
L 1123.558218 501.220516 
L 1131.490984 493.788917 
L 1138.971816 485.828324 
L 1145.970593 477.370791 
L 1152.459132 468.450373 
L 1158.411306 459.10299 
L 1163.803148 449.366281 
L 1168.612947 439.279451 
L 1172.821336 428.883118 
L 1176.411369 418.219143 
L 1179.36859 407.330466 
L 1181.681091 396.260932 
L 1183.339561 385.055115 
L 1184.337322 373.758136 
L 1184.670356 362.415484 
" style="fill:none;stroke:#ffa500;stroke-linecap:square;stroke-width:1.5;"/>
   </g>
   <g id="line2d_53">
    <g clip-path="url(#p3dc651f107)">
     <use style="stroke:#000000;" x="1482.417391" xlink:href="#mc140a00618" y="362.415484"/>
    </g>
   </g>
   <g id="line2d_54">
    <path clip-path="url(#p3dc651f107)" d="M 1647.832411 362.415484 
L 1647.499377 351.072832 
L 1646.501616 339.775853 
L 1644.843146 328.570036 
L 1642.530645 317.500502 
L 1639.573424 306.611825 
L 1635.983391 295.94785 
L 1631.775002 285.551516 
L 1626.965203 275.464687 
L 1621.573361 265.727978 
L 1615.621187 256.380595 
L 1609.132648 247.460177 
L 1602.133872 239.002644 
L 1594.653039 231.042051 
L 1586.720273 223.610452 
L 1578.367516 216.737772 
L 1569.628402 210.451684 
L 1560.53812 204.777502 
L 1551.133274 199.738072 
L 1541.451733 195.353686 
L 1531.532481 191.641999 
L 1521.41546 188.617957 
L 1511.141408 186.293736 
L 1500.751694 184.678695 
L 1490.288155 183.779338 
L 1479.792923 183.599285 
L 1469.308258 184.139262 
L 1458.87638 185.397094 
L 1448.539292 187.367717 
L 1438.33862 190.043196 
L 1428.315438 193.412757 
L 1418.510105 197.462832 
L 1408.962104 202.177113 
L 1399.709881 207.536618 
L 1390.790693 213.519765 
L 1382.240453 220.102463 
L 1374.09359 227.258205 
L 1366.382909 234.958178 
L 1359.139458 243.171376 
L 1352.392403 251.864728 
L 1346.168913 261.00323 
L 1340.494048 270.550082 
L 1335.390658 280.466844 
L 1330.879293 290.713584 
L 1326.978118 301.249043 
L 1323.702842 312.030797 
L 1321.066654 323.015432 
L 1319.080168 334.158718 
L 1317.751384 345.415784 
L 1317.085651 356.741301 
L 1317.085651 368.089667 
L 1317.751384 379.415184 
L 1319.080168 390.67225 
L 1321.066654 401.815535 
L 1323.702842 412.800171 
L 1326.978118 423.581925 
L 1330.879293 434.117383 
L 1335.390658 444.364124 
L 1340.494048 454.280886 
L 1346.168913 463.827738 
L 1352.392403 472.966239 
L 1359.139458 481.659592 
L 1366.382909 489.87279 
L 1374.09359 497.572763 
L 1382.240453 504.728505 
L 1390.790693 511.311202 
L 1399.709881 517.29435 
L 1408.962104 522.653854 
L 1418.510105 527.368136 
L 1428.315438 531.418211 
L 1438.33862 534.787772 
L 1448.539292 537.46325 
L 1458.87638 539.433873 
L 1469.308258 540.691706 
L 1479.792923 541.231683 
L 1490.288155 541.05163 
L 1500.751694 540.152272 
L 1511.141408 538.537232 
L 1521.41546 536.213011 
L 1531.532481 533.188969 
L 1541.451733 529.477282 
L 1551.133274 525.092896 
L 1560.53812 520.053466 
L 1569.628402 514.379283 
L 1578.367516 508.093196 
L 1586.720273 501.220516 
L 1594.653039 493.788917 
L 1602.133872 485.828324 
L 1609.132648 477.370791 
L 1615.621187 468.450373 
L 1621.573361 459.10299 
L 1626.965203 449.366281 
L 1631.775002 439.279451 
L 1635.983391 428.883118 
L 1639.573424 418.219143 
L 1642.530645 407.330466 
L 1644.843146 396.260932 
L 1646.501616 385.055115 
L 1647.499377 373.758136 
L 1647.832411 362.415484 
" style="fill:none;stroke:#0000ff;stroke-linecap:square;stroke-width:1.5;"/>
   </g>
   <g id="patch_9">
    <path d="M 946.472727 512.64 
L 946.472727 69.12 
" style="fill:none;stroke:#000000;stroke-linecap:square;stroke-linejoin:miter;stroke-width:0.8;"/>
   </g>
   <g id="patch_10">
    <path d="M 1555.2 512.64 
L 1555.2 69.12 
" style="fill:none;stroke:#000000;stroke-linecap:square;stroke-linejoin:miter;stroke-width:0.8;"/>
   </g>
   <g id="patch_11">
    <path d="M 946.472727 512.64 
L 1555.2 512.64 
" style="fill:none;stroke:#000000;stroke-linecap:square;stroke-linejoin:miter;stroke-width:0.8;"/>
   </g>
   <g id="patch_12">
    <path d="M 946.472727 69.12 
L 1555.2 69.12 
" style="fill:none;stroke:#000000;stroke-linecap:square;stroke-linejoin:miter;stroke-width:0.8;"/>
   </g>
   <g id="legend_2">
    <g id="patch_13">
     <path d="M 953.472727 507.64 
L 1004.70554 507.64 
Q 1006.70554 507.64 1006.70554 505.64 
L 1006.70554 433.249375 
Q 1006.70554 431.249375 1004.70554 431.249375 
L 953.472727 431.249375 
Q 951.472727 431.249375 951.472727 433.249375 
L 951.472727 505.64 
Q 951.472727 507.64 953.472727 507.64 
z
" style="fill:#ffffff;opacity:0.8;stroke:#cccccc;stroke-linejoin:miter;"/>
    </g>
    <g id="line2d_55">
     <path d="M 955.472727 439.347813 
L 975.472727 439.347813 
" style="fill:none;stroke:#ffc0cb;stroke-linecap:square;stroke-width:1.5;"/>
    </g>
    <g id="line2d_56"/>
    <g id="text_30">
     <!-- AP1 -->
     <g transform="translate(983.472727 442.847813)scale(0.1 -0.1)">
      <use xlink:href="#DejaVuSans-41"/>
      <use x="68.408203" xlink:href="#DejaVuSans-50"/>
      <use x="128.710938" xlink:href="#DejaVuSans-31"/>
     </g>
    </g>
    <g id="line2d_57">
     <path d="M 955.472727 454.025938 
L 975.472727 454.025938 
" style="fill:none;stroke:#ff0000;stroke-linecap:square;stroke-width:1.5;"/>
    </g>
    <g id="line2d_58"/>
    <g id="text_31">
     <!-- AP2 -->
     <g transform="translate(983.472727 457.525938)scale(0.1 -0.1)">
      <use xlink:href="#DejaVuSans-41"/>
      <use x="68.408203" xlink:href="#DejaVuSans-50"/>
      <use x="128.710938" xlink:href="#DejaVuSans-32"/>
     </g>
    </g>
    <g id="line2d_59">
     <path d="M 955.472727 468.704063 
L 975.472727 468.704063 
" style="fill:none;stroke:#008000;stroke-linecap:square;stroke-width:1.5;"/>
    </g>
    <g id="line2d_60"/>
    <g id="text_32">
     <!-- AP3 -->
     <g transform="translate(983.472727 472.204063)scale(0.1 -0.1)">
      <use xlink:href="#DejaVuSans-41"/>
      <use x="68.408203" xlink:href="#DejaVuSans-50"/>
      <use x="128.710938" xlink:href="#DejaVuSans-33"/>
     </g>
    </g>
    <g id="line2d_61">
     <path d="M 955.472727 483.382188 
L 975.472727 483.382188 
" style="fill:none;stroke:#ffa500;stroke-linecap:square;stroke-width:1.5;"/>
    </g>
    <g id="line2d_62"/>
    <g id="text_33">
     <!-- AP4 -->
     <g transform="translate(983.472727 486.882188)scale(0.1 -0.1)">
      <use xlink:href="#DejaVuSans-41"/>
      <use x="68.408203" xlink:href="#DejaVuSans-50"/>
      <use x="128.710938" xlink:href="#DejaVuSans-34"/>
     </g>
    </g>
    <g id="line2d_63">
     <path d="M 955.472727 498.060313 
L 975.472727 498.060313 
" style="fill:none;stroke:#0000ff;stroke-linecap:square;stroke-width:1.5;"/>
    </g>
    <g id="line2d_64"/>
    <g id="text_34">
     <!-- AP5 -->
     <g transform="translate(983.472727 501.560313)scale(0.1 -0.1)">
      <use xlink:href="#DejaVuSans-41"/>
      <use x="68.408203" xlink:href="#DejaVuSans-50"/>
      <use x="128.710938" xlink:href="#DejaVuSans-35"/>
     </g>
    </g>
   </g>
  </g>
  <g id="text_35">
   <!-- Simulador X Q-Learing - - - Rota 42 -->
   <defs>
    <path d="M 53.515625 70.515625 
L 53.515625 60.890625 
Q 47.90625 63.578125 42.921875 64.890625 
Q 37.9375 66.21875 33.296875 66.21875 
Q 25.25 66.21875 20.875 63.09375 
Q 16.5 59.96875 16.5 54.203125 
Q 16.5 49.359375 19.40625 46.890625 
Q 22.3125 44.4375 30.421875 42.921875 
L 36.375 41.703125 
Q 47.40625 39.59375 52.65625 34.296875 
Q 57.90625 29 57.90625 20.125 
Q 57.90625 9.515625 50.796875 4.046875 
Q 43.703125 -1.421875 29.984375 -1.421875 
Q 24.8125 -1.421875 18.96875 -0.25 
Q 13.140625 0.921875 6.890625 3.21875 
L 6.890625 13.375 
Q 12.890625 10.015625 18.65625 8.296875 
Q 24.421875 6.59375 29.984375 6.59375 
Q 38.421875 6.59375 43.015625 9.90625 
Q 47.609375 13.234375 47.609375 19.390625 
Q 47.609375 24.75 44.3125 27.78125 
Q 41.015625 30.8125 33.5 32.328125 
L 27.484375 33.5 
Q 16.453125 35.6875 11.515625 40.375 
Q 6.59375 45.0625 6.59375 53.421875 
Q 6.59375 63.09375 13.40625 68.65625 
Q 20.21875 74.21875 32.171875 74.21875 
Q 37.3125 74.21875 42.625 73.28125 
Q 47.953125 72.359375 53.515625 70.515625 
z
" id="DejaVuSans-53"/>
    <path d="M 9.421875 54.6875 
L 18.40625 54.6875 
L 18.40625 0 
L 9.421875 0 
z
M 9.421875 75.984375 
L 18.40625 75.984375 
L 18.40625 64.59375 
L 9.421875 64.59375 
z
" id="DejaVuSans-69"/>
    <path d="M 52 44.1875 
Q 55.375 50.25 60.0625 53.125 
Q 64.75 56 71.09375 56 
Q 79.640625 56 84.28125 50.015625 
Q 88.921875 44.046875 88.921875 33.015625 
L 88.921875 0 
L 79.890625 0 
L 79.890625 32.71875 
Q 79.890625 40.578125 77.09375 44.375 
Q 74.3125 48.1875 68.609375 48.1875 
Q 61.625 48.1875 57.5625 43.546875 
Q 53.515625 38.921875 53.515625 30.90625 
L 53.515625 0 
L 44.484375 0 
L 44.484375 32.71875 
Q 44.484375 40.625 41.703125 44.40625 
Q 38.921875 48.1875 33.109375 48.1875 
Q 26.21875 48.1875 22.15625 43.53125 
Q 18.109375 38.875 18.109375 30.90625 
L 18.109375 0 
L 9.078125 0 
L 9.078125 54.6875 
L 18.109375 54.6875 
L 18.109375 46.1875 
Q 21.1875 51.21875 25.484375 53.609375 
Q 29.78125 56 35.6875 56 
Q 41.65625 56 45.828125 52.96875 
Q 50 49.953125 52 44.1875 
z
" id="DejaVuSans-6d"/>
    <path d="M 8.5 21.578125 
L 8.5 54.6875 
L 17.484375 54.6875 
L 17.484375 21.921875 
Q 17.484375 14.15625 20.5 10.265625 
Q 23.53125 6.390625 29.59375 6.390625 
Q 36.859375 6.390625 41.078125 11.03125 
Q 45.3125 15.671875 45.3125 23.6875 
L 45.3125 54.6875 
L 54.296875 54.6875 
L 54.296875 0 
L 45.3125 0 
L 45.3125 8.40625 
Q 42.046875 3.421875 37.71875 1 
Q 33.40625 -1.421875 27.6875 -1.421875 
Q 18.265625 -1.421875 13.375 4.4375 
Q 8.5 10.296875 8.5 21.578125 
z
M 31.109375 56 
z
" id="DejaVuSans-75"/>
    <path d="M 9.421875 75.984375 
L 18.40625 75.984375 
L 18.40625 0 
L 9.421875 0 
z
" id="DejaVuSans-6c"/>
    <path d="M 34.28125 27.484375 
Q 23.390625 27.484375 19.1875 25 
Q 14.984375 22.515625 14.984375 16.5 
Q 14.984375 11.71875 18.140625 8.90625 
Q 21.296875 6.109375 26.703125 6.109375 
Q 34.1875 6.109375 38.703125 11.40625 
Q 43.21875 16.703125 43.21875 25.484375 
L 43.21875 27.484375 
z
M 52.203125 31.203125 
L 52.203125 0 
L 43.21875 0 
L 43.21875 8.296875 
Q 40.140625 3.328125 35.546875 0.953125 
Q 30.953125 -1.421875 24.3125 -1.421875 
Q 15.921875 -1.421875 10.953125 3.296875 
Q 6 8.015625 6 15.921875 
Q 6 25.140625 12.171875 29.828125 
Q 18.359375 34.515625 30.609375 34.515625 
L 43.21875 34.515625 
L 43.21875 35.40625 
Q 43.21875 41.609375 39.140625 45 
Q 35.0625 48.390625 27.6875 48.390625 
Q 23 48.390625 18.546875 47.265625 
Q 14.109375 46.140625 10.015625 43.890625 
L 10.015625 52.203125 
Q 14.9375 54.109375 19.578125 55.046875 
Q 24.21875 56 28.609375 56 
Q 40.484375 56 46.34375 49.84375 
Q 52.203125 43.703125 52.203125 31.203125 
z
" id="DejaVuSans-61"/>
    <path d="M 45.40625 46.390625 
L 45.40625 75.984375 
L 54.390625 75.984375 
L 54.390625 0 
L 45.40625 0 
L 45.40625 8.203125 
Q 42.578125 3.328125 38.25 0.953125 
Q 33.9375 -1.421875 27.875 -1.421875 
Q 17.96875 -1.421875 11.734375 6.484375 
Q 5.515625 14.40625 5.515625 27.296875 
Q 5.515625 40.1875 11.734375 48.09375 
Q 17.96875 56 27.875 56 
Q 33.9375 56 38.25 53.625 
Q 42.578125 51.265625 45.40625 46.390625 
z
M 14.796875 27.296875 
Q 14.796875 17.390625 18.875 11.75 
Q 22.953125 6.109375 30.078125 6.109375 
Q 37.203125 6.109375 41.296875 11.75 
Q 45.40625 17.390625 45.40625 27.296875 
Q 45.40625 37.203125 41.296875 42.84375 
Q 37.203125 48.484375 30.078125 48.484375 
Q 22.953125 48.484375 18.875 42.84375 
Q 14.796875 37.203125 14.796875 27.296875 
z
" id="DejaVuSans-64"/>
    <path d="M 30.609375 48.390625 
Q 23.390625 48.390625 19.1875 42.75 
Q 14.984375 37.109375 14.984375 27.296875 
Q 14.984375 17.484375 19.15625 11.84375 
Q 23.34375 6.203125 30.609375 6.203125 
Q 37.796875 6.203125 41.984375 11.859375 
Q 46.1875 17.53125 46.1875 27.296875 
Q 46.1875 37.015625 41.984375 42.703125 
Q 37.796875 48.390625 30.609375 48.390625 
z
M 30.609375 56 
Q 42.328125 56 49.015625 48.375 
Q 55.71875 40.765625 55.71875 27.296875 
Q 55.71875 13.875 49.015625 6.21875 
Q 42.328125 -1.421875 30.609375 -1.421875 
Q 18.84375 -1.421875 12.171875 6.21875 
Q 5.515625 13.875 5.515625 27.296875 
Q 5.515625 40.765625 12.171875 48.375 
Q 18.84375 56 30.609375 56 
z
" id="DejaVuSans-6f"/>
    <path d="M 41.109375 46.296875 
Q 39.59375 47.171875 37.8125 47.578125 
Q 36.03125 48 33.890625 48 
Q 26.265625 48 22.1875 43.046875 
Q 18.109375 38.09375 18.109375 28.8125 
L 18.109375 0 
L 9.078125 0 
L 9.078125 54.6875 
L 18.109375 54.6875 
L 18.109375 46.1875 
Q 20.953125 51.171875 25.484375 53.578125 
Q 30.03125 56 36.53125 56 
Q 37.453125 56 38.578125 55.875 
Q 39.703125 55.765625 41.0625 55.515625 
z
" id="DejaVuSans-72"/>
    <path id="DejaVuSans-20"/>
    <path d="M 6.296875 72.90625 
L 16.890625 72.90625 
L 35.015625 45.796875 
L 53.21875 72.90625 
L 63.8125 72.90625 
L 40.375 37.890625 
L 65.375 0 
L 54.78125 0 
L 34.28125 31 
L 13.625 0 
L 2.984375 0 
L 29 38.921875 
z
" id="DejaVuSans-58"/>
    <path d="M 39.40625 66.21875 
Q 28.65625 66.21875 22.328125 58.203125 
Q 16.015625 50.203125 16.015625 36.375 
Q 16.015625 22.609375 22.328125 14.59375 
Q 28.65625 6.59375 39.40625 6.59375 
Q 50.140625 6.59375 56.421875 14.59375 
Q 62.703125 22.609375 62.703125 36.375 
Q 62.703125 50.203125 56.421875 58.203125 
Q 50.140625 66.21875 39.40625 66.21875 
z
M 53.21875 1.3125 
L 66.21875 -12.890625 
L 54.296875 -12.890625 
L 43.5 -1.21875 
Q 41.890625 -1.3125 41.03125 -1.359375 
Q 40.1875 -1.421875 39.40625 -1.421875 
Q 24.03125 -1.421875 14.8125 8.859375 
Q 5.609375 19.140625 5.609375 36.375 
Q 5.609375 53.65625 14.8125 63.9375 
Q 24.03125 74.21875 39.40625 74.21875 
Q 54.734375 74.21875 63.90625 63.9375 
Q 73.09375 53.65625 73.09375 36.375 
Q 73.09375 23.6875 67.984375 14.640625 
Q 62.890625 5.609375 53.21875 1.3125 
z
" id="DejaVuSans-51"/>
    <path d="M 4.890625 31.390625 
L 31.203125 31.390625 
L 31.203125 23.390625 
L 4.890625 23.390625 
z
" id="DejaVuSans-2d"/>
    <path d="M 9.8125 72.90625 
L 19.671875 72.90625 
L 19.671875 8.296875 
L 55.171875 8.296875 
L 55.171875 0 
L 9.8125 0 
z
" id="DejaVuSans-4c"/>
    <path d="M 56.203125 29.59375 
L 56.203125 25.203125 
L 14.890625 25.203125 
Q 15.484375 15.921875 20.484375 11.0625 
Q 25.484375 6.203125 34.421875 6.203125 
Q 39.59375 6.203125 44.453125 7.46875 
Q 49.3125 8.734375 54.109375 11.28125 
L 54.109375 2.78125 
Q 49.265625 0.734375 44.1875 -0.34375 
Q 39.109375 -1.421875 33.890625 -1.421875 
Q 20.796875 -1.421875 13.15625 6.1875 
Q 5.515625 13.8125 5.515625 26.8125 
Q 5.515625 40.234375 12.765625 48.109375 
Q 20.015625 56 32.328125 56 
Q 43.359375 56 49.78125 48.890625 
Q 56.203125 41.796875 56.203125 29.59375 
z
M 47.21875 32.234375 
Q 47.125 39.59375 43.09375 43.984375 
Q 39.0625 48.390625 32.421875 48.390625 
Q 24.90625 48.390625 20.390625 44.140625 
Q 15.875 39.890625 15.1875 32.171875 
z
" id="DejaVuSans-65"/>
    <path d="M 54.890625 33.015625 
L 54.890625 0 
L 45.90625 0 
L 45.90625 32.71875 
Q 45.90625 40.484375 42.875 44.328125 
Q 39.84375 48.1875 33.796875 48.1875 
Q 26.515625 48.1875 22.3125 43.546875 
Q 18.109375 38.921875 18.109375 30.90625 
L 18.109375 0 
L 9.078125 0 
L 9.078125 54.6875 
L 18.109375 54.6875 
L 18.109375 46.1875 
Q 21.34375 51.125 25.703125 53.5625 
Q 30.078125 56 35.796875 56 
Q 45.21875 56 50.046875 50.171875 
Q 54.890625 44.34375 54.890625 33.015625 
z
" id="DejaVuSans-6e"/>
    <path d="M 45.40625 27.984375 
Q 45.40625 37.75 41.375 43.109375 
Q 37.359375 48.484375 30.078125 48.484375 
Q 22.859375 48.484375 18.828125 43.109375 
Q 14.796875 37.75 14.796875 27.984375 
Q 14.796875 18.265625 18.828125 12.890625 
Q 22.859375 7.515625 30.078125 7.515625 
Q 37.359375 7.515625 41.375 12.890625 
Q 45.40625 18.265625 45.40625 27.984375 
z
M 54.390625 6.78125 
Q 54.390625 -7.171875 48.1875 -13.984375 
Q 42 -20.796875 29.203125 -20.796875 
Q 24.46875 -20.796875 20.265625 -20.09375 
Q 16.0625 -19.390625 12.109375 -17.921875 
L 12.109375 -9.1875 
Q 16.0625 -11.328125 19.921875 -12.34375 
Q 23.78125 -13.375 27.78125 -13.375 
Q 36.625 -13.375 41.015625 -8.765625 
Q 45.40625 -4.15625 45.40625 5.171875 
L 45.40625 9.625 
Q 42.625 4.78125 38.28125 2.390625 
Q 33.9375 0 27.875 0 
Q 17.828125 0 11.671875 7.65625 
Q 5.515625 15.328125 5.515625 27.984375 
Q 5.515625 40.671875 11.671875 48.328125 
Q 17.828125 56 27.875 56 
Q 33.9375 56 38.28125 53.609375 
Q 42.625 51.21875 45.40625 46.390625 
L 45.40625 54.6875 
L 54.390625 54.6875 
z
" id="DejaVuSans-67"/>
    <path d="M 44.390625 34.1875 
Q 47.5625 33.109375 50.5625 29.59375 
Q 53.5625 26.078125 56.59375 19.921875 
L 66.609375 0 
L 56 0 
L 46.6875 18.703125 
Q 43.0625 26.03125 39.671875 28.421875 
Q 36.28125 30.8125 30.421875 30.8125 
L 19.671875 30.8125 
L 19.671875 0 
L 9.8125 0 
L 9.8125 72.90625 
L 32.078125 72.90625 
Q 44.578125 72.90625 50.734375 67.671875 
Q 56.890625 62.453125 56.890625 51.90625 
Q 56.890625 45.015625 53.6875 40.46875 
Q 50.484375 35.9375 44.390625 34.1875 
z
M 19.671875 64.796875 
L 19.671875 38.921875 
L 32.078125 38.921875 
Q 39.203125 38.921875 42.84375 42.21875 
Q 46.484375 45.515625 46.484375 51.90625 
Q 46.484375 58.296875 42.84375 61.546875 
Q 39.203125 64.796875 32.078125 64.796875 
z
" id="DejaVuSans-52"/>
    <path d="M 18.3125 70.21875 
L 18.3125 54.6875 
L 36.8125 54.6875 
L 36.8125 47.703125 
L 18.3125 47.703125 
L 18.3125 18.015625 
Q 18.3125 11.328125 20.140625 9.421875 
Q 21.96875 7.515625 27.59375 7.515625 
L 36.8125 7.515625 
L 36.8125 0 
L 27.59375 0 
Q 17.1875 0 13.234375 3.875 
Q 9.28125 7.765625 9.28125 18.015625 
L 9.28125 47.703125 
L 2.6875 47.703125 
L 2.6875 54.6875 
L 9.28125 54.6875 
L 9.28125 70.21875 
z
" id="DejaVuSans-74"/>
   </defs>
   <g transform="translate(762.601875 20.638125)scale(0.12 -0.12)">
    <use xlink:href="#DejaVuSans-53"/>
    <use x="63.476562" xlink:href="#DejaVuSans-69"/>
    <use x="91.259766" xlink:href="#DejaVuSans-6d"/>
    <use x="188.671875" xlink:href="#DejaVuSans-75"/>
    <use x="252.050781" xlink:href="#DejaVuSans-6c"/>
    <use x="279.833984" xlink:href="#DejaVuSans-61"/>
    <use x="341.113281" xlink:href="#DejaVuSans-64"/>
    <use x="404.589844" xlink:href="#DejaVuSans-6f"/>
    <use x="465.771484" xlink:href="#DejaVuSans-72"/>
    <use x="506.884766" xlink:href="#DejaVuSans-20"/>
    <use x="538.671875" xlink:href="#DejaVuSans-58"/>
    <use x="607.177734" xlink:href="#DejaVuSans-20"/>
    <use x="638.964844" xlink:href="#DejaVuSans-51"/>
    <use x="717.707031" xlink:href="#DejaVuSans-2d"/>
    <use x="753.791016" xlink:href="#DejaVuSans-4c"/>
    <use x="809.488281" xlink:href="#DejaVuSans-65"/>
    <use x="871.011719" xlink:href="#DejaVuSans-61"/>
    <use x="932.291016" xlink:href="#DejaVuSans-72"/>
    <use x="973.404297" xlink:href="#DejaVuSans-69"/>
    <use x="1001.1875" xlink:href="#DejaVuSans-6e"/>
    <use x="1064.566406" xlink:href="#DejaVuSans-67"/>
    <use x="1128.042969" xlink:href="#DejaVuSans-20"/>
    <use x="1159.830078" xlink:href="#DejaVuSans-2d"/>
    <use x="1195.914062" xlink:href="#DejaVuSans-2d"/>
    <use x="1231.998047" xlink:href="#DejaVuSans-2d"/>
    <use x="1268.082031" xlink:href="#DejaVuSans-20"/>
    <use x="1299.869141" xlink:href="#DejaVuSans-52"/>
    <use x="1369.289062" xlink:href="#DejaVuSans-6f"/>
    <use x="1430.470703" xlink:href="#DejaVuSans-74"/>
    <use x="1469.679688" xlink:href="#DejaVuSans-61"/>
    <use x="1530.958984" xlink:href="#DejaVuSans-20"/>
    <use x="1562.746094" xlink:href="#DejaVuSans-34"/>
    <use x="1626.369141" xlink:href="#DejaVuSans-32"/>
   </g>
  </g>
 </g>
 <defs>
  <clipPath id="p9fbf99096b">
   <rect height="443.52" width="608.727273" x="216" y="69.12"/>
  </clipPath>
  <clipPath id="p3dc651f107">
   <rect height="443.52" width="608.727273" x="946.472727" y="69.12"/>
  </clipPath>
 </defs>
</svg>
